<svg xmlns="http://www.w3.org/2000/svg" version="1.1" xmlns:xlink="http://www.w3.org/1999/xlink" width="512" height="512" x="0" y="0" viewBox="0 0 64 64" style="enable-background:new 0 0 512 512" xml:space="preserve" class=""><g><path d="m34.575 26.63-1.75-1.7a.998.998 0 0 1 .56-1.7l2.41-.35 1.08-2.19a1.01 1.01 0 0 1 1.79 0l1.079 2.19 2.4.35a1.004 1.004 0 0 1 .56 1.7l-1.74 1.7.41 2.399a1.005 1.005 0 0 1-1.45 1.05l-2.16-1.13-2.15 1.13a1 1 0 0 1-1.45-1.05zm-3.95-3.4-2.41-.35-1.08-2.19a1.04 1.04 0 0 0-1.79 0l-1.08 2.19-2.399.35a.998.998 0 0 0-.56 1.7l1.74 1.7-.41 2.4a1.005 1.005 0 0 0 1.45 1.049l2.16-1.13 2.15 1.13a1 1 0 0 0 1.45-1.05l-.41-2.4 1.749-1.7a1.004 1.004 0 0 0-.56-1.7zm5.29-4.87a1.009 1.009 0 0 0 .99-1.17l-.67-3.9 2.83-2.759a1.004 1.004 0 0 0-.56-1.7l-3.91-.57-1.75-3.54a1.033 1.033 0 0 0-1.79 0l-1.75 3.54-3.91.57a1.004 1.004 0 0 0-.56 1.7l2.83 2.76-.66 3.9a.991.991 0 0 0 1.45 1.05l3.5-1.83c.238.087 3.78 2.09 3.96 1.95zm2.55-4.79a1.01 1.01 0 0 0 .25 1.03l2.219 2.16-.52 3.07a.998.998 0 0 0 1.45 1.05l2.75-1.44 2.75 1.44a1.002 1.002 0 0 0 1.449-1.05l-.53-3.07 2.23-2.16a1.004 1.004 0 0 0-.56-1.71l-3.07-.45-1.38-2.779a1.04 1.04 0 0 0-1.79 0l-1.37 2.78-3.079.45a1 1 0 0 0-.8.68zm-22.738 3.19-.53 3.07a.994.994 0 0 0 .4.97.978.978 0 0 0 1.05.08l2.75-1.44 2.75 1.44a1.006 1.006 0 0 0 1.449-1.05l-.52-3.07 2.22-2.16a1.01 1.01 0 0 0 .25-1.03 1 1 0 0 0-.8-.68l-3.08-.45-1.37-2.779a1.04 1.04 0 0 0-1.79 0l-1.38 2.78-3.069.45a1.004 1.004 0 0 0-.56 1.71zm.25 30.047c3.543-.243 9.062-.518 12.588-.43l-.37-4.42a7.464 7.464 0 0 0-2.47-4.839 29.916 29.916 0 0 0-7.768-5.97c-1.994-1.208-5.83-.398-5.95 2.29a2.09 2.09 0 0 0 .75 1.52l5.01 4.135a.998.998 0 0 1 .135 1.404.998.998 0 0 1-1.405.135l-5.01-4.134c-2.986-2.57-1.094-6.696 2.34-7.619l-2.53-5.35a4.989 4.989 0 0 0-4.5-2.859 2.402 2.402 0 0 0-2.709 2.89l4.14 14.978a7.067 7.067 0 0 0 2.84 3.94c1.46 1.073 4.327 2.466 4.909 4.329zm31.146 1.89c-.123 0-10.739-.4-10.739-.4a3.025 3.025 0 0 0-3.1 2.99v5.519a2.991 2.991 0 0 0 2.99 2.99h10.46a2.994 2.994 0 0 0 2.989-2.83l.27-5.12a3.003 3.003 0 0 0-2.87-3.15zM59.662 21.78c-1.87-2.382-5.912-.697-6.95 1.75l-2.52 5.35c3.405.922 5.324 5.022 2.35 7.598l-5.033 4.157a.993.993 0 0 1-1.401-.138.998.998 0 0 1 .134-1.404l5.02-4.145a2.12 2.12 0 0 0-.16-3.33 4.64 4.64 0 0 0-5.609-.16 29.745 29.745 0 0 0-7.209 5.66 7.483 7.483 0 0 0-2.47 4.83l-.37 4.44c3.495-.107 9.069.179 12.59.419.574-1.854 3.446-3.257 4.898-4.33a7.026 7.026 0 0 0 2.85-3.949l4.15-14.988a2.313 2.313 0 0 0-.27-1.76zM29.805 49.137c-1.17-1.281-3.45-.71-4.96-.74l-7.468.28a3.068 3.068 0 0 0-3.36 3.17l.27 5.119a2.994 2.994 0 0 0 2.99 2.83h10.458a2.991 2.991 0 0 0 2.99-2.99v-5.52a2.967 2.967 0 0 0-.92-2.15z" fill="#004080" opacity="1" data-original="#000000" class=""></path></g></svg>