<svg xmlns="http://www.w3.org/2000/svg" version="1.1" xmlns:xlink="http://www.w3.org/1999/xlink" width="512" height="512" x="0" y="0" viewBox="0 0 512 512" style="enable-background:new 0 0 512 512" xml:space="preserve" class=""><g><path d="m497.68 201.43-27.76-1.26a218.778 218.778 0 0 0-23.2-55.93l18.76-20.54c5.41-5.92 5.2-15.05-.47-20.73l-55.98-55.98c-5.68-5.67-14.8-5.88-20.73-.47l-20.54 18.76a218.778 218.778 0 0 0-55.93-23.2l-1.26-27.76C310.21 6.31 303.61 0 295.59 0h-79.18c-8.02 0-14.62 6.31-14.98 14.32l-1.26 27.76a218.778 218.778 0 0 0-55.93 23.2L123.7 46.52c-5.93-5.41-15.06-5.2-20.73.47l-55.98 55.98c-5.67 5.68-5.88 14.81-.47 20.73l18.76 20.54a218.778 218.778 0 0 0-23.2 55.93l-27.76 1.26C6.31 201.79 0 208.39 0 216.41v79.18c0 8.02 6.31 14.62 14.32 14.98l27.76 1.26a218.778 218.778 0 0 0 23.2 55.93L46.52 388.3c-5.41 5.92-5.2 15.05.47 20.73l55.98 55.98c5.67 5.67 14.8 5.88 20.73.47l20.54-18.76a218.778 218.778 0 0 0 55.93 23.2l1.26 27.76c.36 8.01 6.96 14.32 14.98 14.32h79.18c8.02 0 14.62-6.31 14.98-14.32l1.26-27.76a218.778 218.778 0 0 0 55.93-23.2l20.54 18.76c5.93 5.41 15.05 5.2 20.73-.47l55.98-55.98c5.67-5.68 5.88-14.81.47-20.73l-18.76-20.54a218.778 218.778 0 0 0 23.2-55.93l27.76-1.26c8.01-.36 14.32-6.96 14.32-14.98v-79.18c0-8.02-6.31-14.62-14.32-14.98zM301 388.612V281h36.47c5.84 0 11.15-3.39 13.6-8.68 2.46-5.3 1.63-11.54-2.14-16l-81.47-96.47c-2.85-3.37-7.04-5.32-11.46-5.32s-8.61 1.95-11.46 5.32l-81.47 96.47c-3.77 4.46-4.6 10.7-2.14 16 2.45 5.29 7.76 8.68 13.6 8.68H211v107.612c-55.204-18.785-95.03-71.136-95.03-132.612 0-77.21 62.82-140.03 140.03-140.03S396.03 178.79 396.03 256c0 61.476-39.826 113.827-95.03 132.612z" fill="#ffffff" opacity="1" data-original="#000000" class=""></path></g></svg>