<svg xmlns="http://www.w3.org/2000/svg" xmlns:xlink="http://www.w3.org/1999/xlink" width="580" zoomAndPan="magnify" viewBox="0 0 434.88 446.25" height="595" preserveAspectRatio="xMidYMid meet" version="1.0"><defs><g/></defs><path fill="#ff914d" d="M 148.699219 424.835938 C 148.585938 423.875 148.488281 422.9375 148.511719 421.980469 C 148.527344 421.273438 148.566406 420.570312 148.605469 419.875 C 148.597656 417.535156 148.464844 415.195312 148.394531 412.859375 C 148.347656 411.320312 148.304688 409.796875 148.171875 408.265625 C 147.757812 403.546875 147.371094 398.832031 146.945312 394.121094 C 146.4375 390.644531 145.914062 387.175781 145.398438 383.703125 C 145.042969 381.304688 144.6875 378.917969 144.332031 376.523438 C 144.183594 375.503906 144.085938 374.457031 143.878906 373.441406 C 142.46875 366.59375 141.011719 359.753906 139.59375 352.902344 C 138.675781 349.445312 137.738281 345.996094 136.808594 342.539062 C 136.175781 340.175781 135.539062 337.8125 134.902344 335.449219 C 134.675781 334.582031 134.476562 333.691406 134.199219 332.835938 C 132.910156 328.832031 131.621094 324.832031 130.332031 320.832031 C 129.433594 318.042969 128.589844 315.226562 127.621094 312.464844 C 122.417969 297.695312 117.113281 282.964844 111.714844 268.269531 C 108.863281 260.5 105.972656 252.742188 103.070312 244.988281 C 100.695312 238.777344 98.296875 232.578125 95.820312 226.410156 C 93.460938 220.519531 91.003906 214.636719 88.214844 208.933594 C 85.855469 204.109375 88.339844 198.070312 93.117188 195.898438 C 95.457031 194.835938 98.167969 194.738281 100.574219 195.621094 C 103.09375 196.542969 104.988281 198.421875 106.152344 200.800781 C 109.484375 207.617188 112.3125 214.664062 115.132812 221.699219 C 117.945312 228.714844 120.609375 235.785156 123.265625 242.863281 C 128.589844 257.082031 133.796875 271.34375 138.984375 285.609375 C 141.523438 292.597656 143.960938 299.632812 146.429688 306.644531 C 147.386719 309.355469 148.214844 312.109375 149.09375 314.839844 C 150.410156 318.925781 151.726562 323.011719 153.039062 327.089844 C 153.300781 327.902344 153.488281 328.734375 153.707031 329.550781 C 154.335938 331.878906 154.960938 334.207031 155.585938 336.539062 C 156.589844 340.265625 157.589844 344 158.589844 347.726562 C 158.964844 349.117188 159.207031 350.550781 159.5 351.957031 C 160.011719 354.402344 160.519531 356.855469 161.035156 359.304688 C 161.792969 362.960938 162.566406 366.617188 163.316406 370.273438 C 163.558594 371.441406 163.667969 372.660156 163.84375 373.84375 C 164.226562 376.394531 164.605469 378.957031 164.984375 381.507812 C 165.527344 385.164062 166.214844 388.828125 166.539062 392.503906 C 166.769531 395.0625 166.988281 397.621094 167.210938 400.175781 C 167.597656 399.742188 167.980469 399.300781 168.363281 398.859375 C 172.113281 394.570312 175.898438 390.316406 179.699219 386.066406 C 181 380.832031 182.296875 375.589844 183.589844 370.347656 C 186.851562 357.117188 190.089844 343.882812 193.332031 330.648438 C 197.195312 314.851562 201.078125 299.054688 204.96875 283.265625 C 208.59375 268.554688 212.320312 253.867188 216.023438 239.179688 C 219.496094 225.433594 223.09375 211.722656 226.679688 198.007812 C 228.519531 190.96875 230.371094 183.933594 232.203125 176.890625 C 233.722656 171.015625 235.421875 165.1875 237.027344 159.332031 C 240.796875 145.621094 244.496094 131.890625 248.394531 118.210938 C 252.546875 103.625 256.621094 89.011719 260.878906 74.457031 C 263.621094 65.09375 266.359375 55.730469 269.101562 46.367188 C 270.394531 41.933594 271.734375 37.519531 273.105469 33.109375 C 274.648438 28.152344 276.304688 23.242188 278.15625 18.390625 C 279.082031 15.96875 280.054688 13.566406 281.179688 11.230469 C 282.578125 8.328125 284.492188 5.042969 287.328125 3.34375 C 287.863281 3.019531 288.410156 2.71875 288.96875 2.433594 C 293.765625 0.0273438 299.851562 2.601562 302.003906 7.339844 C 303.066406 9.679688 303.160156 12.390625 302.28125 14.800781 C 301.683594 16.433594 300.695312 17.777344 299.429688 18.847656 C 298.96875 19.691406 298.542969 20.542969 298.140625 21.410156 C 294.546875 29.855469 291.96875 38.710938 289.257812 47.464844 C 285.609375 59.941406 281.894531 72.398438 278.328125 84.898438 C 275.667969 94.242188 273.007812 103.574219 270.351562 112.910156 C 268.8125 118.308594 267.230469 123.695312 265.746094 129.105469 C 261.183594 145.703125 256.617188 162.300781 252.050781 178.894531 C 250.886719 183.140625 249.796875 187.40625 248.6875 191.664062 C 246.042969 201.765625 243.40625 211.863281 240.765625 221.96875 C 237.148438 235.804688 233.679688 249.679688 230.179688 263.550781 C 226.527344 278.046875 222.957031 292.5625 219.378906 307.082031 C 216.308594 319.554688 213.269531 332.035156 210.210938 344.511719 C 209.300781 348.199219 208.40625 351.886719 207.507812 355.570312 C 208.917969 354.0625 210.332031 352.554688 211.75 351.054688 C 215.730469 346.835938 219.667969 342.558594 223.730469 338.414062 C 226.5 335.597656 229.261719 332.777344 232.027344 329.960938 C 233.988281 327.957031 235.914062 325.917969 237.933594 323.976562 C 237.699219 324.203125 237.464844 324.429688 237.226562 324.660156 C 243.222656 318.757812 249.222656 312.847656 255.308594 307.039062 C 257.679688 304.6875 260.214844 302.484375 262.667969 300.21875 C 266.460938 296.722656 270.25 293.222656 274.042969 289.722656 C 278.929688 285.207031 284.042969 280.949219 289.101562 276.617188 C 292.164062 273.992188 295.226562 271.371094 298.292969 268.742188 C 300.417969 266.921875 302.730469 265.296875 304.949219 263.597656 C 308.605469 260.78125 312.257812 257.972656 315.914062 255.15625 C 318.832031 252.902344 322.007812 250.96875 325.074219 248.929688 C 326.421875 248.03125 327.765625 247.132812 329.109375 246.242188 C 330.214844 245.503906 331.363281 244.828125 332.511719 244.160156 C 333.613281 243.511719 334.742188 242.921875 335.886719 242.351562 C 337.074219 241.761719 338.347656 241.378906 339.609375 240.972656 C 343.304688 239.789062 347.53125 241.128906 350 244.074219 C 352.808594 247.433594 353.066406 252.449219 350.527344 256.039062 C 349.71875 257.183594 348.875 258.28125 347.886719 259.265625 C 346.867188 260.285156 345.78125 261.222656 344.699219 262.171875 C 344.03125 262.757812 343.382812 263.367188 342.722656 263.960938 C 341.347656 265.214844 339.953125 266.449219 338.597656 267.714844 C 336.035156 270.105469 333.449219 272.464844 330.902344 274.863281 C 325.011719 280.40625 319.144531 285.964844 313.28125 291.53125 C 312.898438 291.894531 312.515625 292.257812 312.136719 292.617188 C 312.066406 292.683594 311.996094 292.75 311.925781 292.816406 C 311.972656 292.773438 312.019531 292.726562 312.066406 292.683594 C 312.054688 292.691406 312.046875 292.703125 312.039062 292.710938 C 311.835938 292.90625 311.632812 293.097656 311.429688 293.289062 C 311.695312 293.039062 311.960938 292.785156 312.222656 292.53125 C 312.222656 292.53125 312.222656 292.527344 312.226562 292.527344 C 308.515625 296.078125 304.796875 299.625 301.085938 303.175781 C 301.398438 302.871094 301.714844 302.570312 302.03125 302.269531 C 301.679688 302.605469 301.328125 302.941406 300.980469 303.273438 C 300.929688 303.320312 300.878906 303.367188 300.828125 303.417969 C 296.542969 307.550781 292.261719 311.675781 287.96875 315.789062 C 287.980469 315.777344 287.988281 315.765625 288 315.753906 C 282.714844 320.851562 277.507812 326.03125 272.253906 331.15625 C 269.949219 333.398438 267.738281 335.746094 265.480469 338.039062 C 262.003906 341.570312 258.527344 345.109375 255.054688 348.640625 C 250.292969 353.472656 245.785156 358.5625 241.183594 363.542969 C 238.304688 366.660156 235.425781 369.78125 232.546875 372.898438 C 231.292969 374.261719 230.125 375.703125 228.929688 377.121094 C 222.824219 384.355469 216.792969 391.660156 210.621094 398.835938 C 203.277344 408.171875 196.152344 417.722656 189.941406 427.863281 C 189.128906 429.226562 188.332031 430.601562 187.558594 431.988281 C 187.375 432.3125 187.191406 432.640625 187.015625 432.964844 C 186.175781 435.171875 185.238281 437.34375 184.207031 439.492188 C 182.3125 443.464844 177.496094 445.5 173.289062 444.539062 C 168.554688 443.464844 165.164062 438.863281 165.671875 434 C 165.765625 433.136719 165.925781 432.292969 166.148438 431.46875 C 165.902344 431.6875 165.652344 431.902344 165.40625 432.117188 C 163.453125 433.832031 160.703125 434.625 158.140625 434.375 C 155.679688 434.136719 153.050781 432.910156 151.53125 430.902344 C 151.136719 430.375 150.753906 429.839844 150.40625 429.28125 C 149.550781 427.925781 148.890625 426.464844 148.699219 424.835938 " fill-opacity="1" fill-rule="nonzero"/><g fill="#9e660c" fill-opacity="1"><g transform="translate(186.816642, 417.021114)"><g><path d="M 2.15625 0.078125 C 1.851562 0.078125 1.613281 -0.00390625 1.4375 -0.171875 C 1.257812 -0.347656 1.171875 -0.578125 1.171875 -0.859375 C 1.171875 -1.140625 1.257812 -1.367188 1.4375 -1.546875 C 1.613281 -1.722656 1.851562 -1.8125 2.15625 -1.8125 C 2.46875 -1.8125 2.710938 -1.722656 2.890625 -1.546875 C 3.066406 -1.378906 3.15625 -1.15625 3.15625 -0.875 C 3.15625 -0.59375 3.066406 -0.363281 2.890625 -0.1875 C 2.710938 -0.0078125 2.46875 0.078125 2.15625 0.078125 Z M 2.15625 0.078125 "/></g></g></g></svg>