<svg xmlns="http://www.w3.org/2000/svg" xmlns:xlink="http://www.w3.org/1999/xlink" width="580" zoomAndPan="magnify" viewBox="0 0 434.88 446.25" height="595" preserveAspectRatio="xMidYMid meet" version="1.0"><defs><g/><clipPath id="20c936e0c1"><path d="M 0.304688 180.480469 L 434.457031 180.480469 L 434.457031 263 L 0.304688 263 Z M 0.304688 180.480469 " clip-rule="nonzero"/></clipPath></defs><g clip-path="url(#20c936e0c1)"><path fill="#ff914d" d="M 432.660156 217.078125 C 432.648438 217.085938 432.597656 217.113281 432.527344 217.148438 L 410.960938 257.03125 C 410.210938 258.421875 408.472656 258.9375 407.085938 258.183594 C 405.691406 257.433594 405.175781 255.699219 405.925781 254.308594 L 423.695312 221.445312 C 404.632812 230.261719 356.660156 250.058594 294.335938 258.570312 C 246.746094 265.074219 200.183594 263.835938 155.945312 254.898438 C 100.621094 243.722656 48.820312 220.410156 1.972656 185.601562 C 0.707031 184.660156 0.441406 182.871094 1.382812 181.601562 C 1.988281 180.785156 2.945312 180.382812 3.890625 180.453125 C 4.414062 180.492188 4.933594 180.675781 5.386719 181.007812 C 51.515625 215.28125 102.511719 238.246094 156.953125 249.265625 C 200.535156 258.082031 246.425781 259.316406 293.355469 252.929688 C 352.453125 244.886719 398.445312 226.585938 418.691406 217.445312 C 409.789062 217.496094 396.207031 216.3125 377.054688 211.507812 C 375.519531 211.125 374.589844 209.570312 374.972656 208.039062 C 375.316406 206.667969 376.59375 205.78125 377.957031 205.878906 C 378.117188 205.890625 378.28125 205.917969 378.445312 205.957031 C 415.125 215.15625 430.359375 210.558594 430.488281 210.515625 C 431.601562 210.148438 432.832031 210.496094 433.582031 211.394531 C 434.21875 212.152344 434.402344 213.167969 434.117188 214.085938 C 434.3125 215.261719 433.769531 216.484375 432.660156 217.078125 " fill-opacity="1" fill-rule="nonzero"/></g><g fill="#9e660c" fill-opacity="1"><g transform="translate(186.816642, 417.021114)"><g><path d="M 2.15625 0.078125 C 1.851562 0.078125 1.613281 -0.00390625 1.4375 -0.171875 C 1.257812 -0.347656 1.171875 -0.578125 1.171875 -0.859375 C 1.171875 -1.140625 1.257812 -1.367188 1.4375 -1.546875 C 1.613281 -1.722656 1.851562 -1.8125 2.15625 -1.8125 C 2.46875 -1.8125 2.710938 -1.722656 2.890625 -1.546875 C 3.066406 -1.378906 3.15625 -1.15625 3.15625 -0.875 C 3.15625 -0.59375 3.066406 -0.363281 2.890625 -0.1875 C 2.710938 -0.0078125 2.46875 0.078125 2.15625 0.078125 Z M 2.15625 0.078125 "/></g></g></g></svg>