<svg xmlns="http://www.w3.org/2000/svg" xmlns:xlink="http://www.w3.org/1999/xlink" width="580" zoomAndPan="magnify" viewBox="0 0 434.88 446.25" height="595" preserveAspectRatio="xMidYMid meet" version="1.0"><defs><g/></defs><path fill="#ff914d" d="M 290.160156 424.835938 C 290.273438 423.875 290.371094 422.9375 290.347656 421.980469 C 290.332031 421.273438 290.292969 420.570312 290.253906 419.875 C 290.261719 417.535156 290.394531 415.195312 290.464844 412.859375 C 290.511719 411.320312 290.554688 409.796875 290.6875 408.265625 C 291.097656 403.546875 291.488281 398.832031 291.914062 394.121094 C 292.421875 390.644531 292.941406 387.175781 293.460938 383.703125 C 293.816406 381.304688 294.167969 378.917969 294.523438 376.523438 C 294.675781 375.503906 294.773438 374.457031 294.980469 373.441406 C 296.390625 366.59375 297.847656 359.753906 299.261719 352.902344 C 300.183594 349.445312 301.121094 345.996094 302.050781 342.539062 C 302.683594 340.175781 303.320312 337.8125 303.953125 335.449219 C 304.183594 334.582031 304.382812 333.691406 304.660156 332.835938 C 305.949219 328.832031 307.238281 324.832031 308.523438 320.832031 C 309.425781 318.042969 310.265625 315.226562 311.238281 312.464844 C 316.4375 297.695312 321.746094 282.964844 327.144531 268.269531 C 329.996094 260.5 332.886719 252.742188 335.789062 244.988281 C 338.164062 238.777344 340.5625 232.578125 343.039062 226.410156 C 345.398438 220.519531 347.855469 214.636719 350.644531 208.933594 C 353 204.109375 350.519531 198.070312 345.742188 195.898438 C 343.398438 194.835938 340.691406 194.738281 338.285156 195.621094 C 335.765625 196.542969 333.867188 198.421875 332.707031 200.800781 C 329.371094 207.617188 326.546875 214.664062 323.726562 221.699219 C 320.914062 228.714844 318.246094 235.785156 315.59375 242.863281 C 310.265625 257.082031 305.0625 271.34375 299.875 285.609375 C 297.332031 292.597656 294.898438 299.632812 292.429688 306.644531 C 291.472656 309.355469 290.644531 312.109375 289.761719 314.839844 C 288.449219 318.925781 287.132812 323.011719 285.820312 327.089844 C 285.558594 327.902344 285.371094 328.734375 285.152344 329.550781 C 284.523438 331.878906 283.898438 334.207031 283.269531 336.539062 C 282.269531 340.265625 281.269531 344 280.265625 347.726562 C 279.890625 349.117188 279.652344 350.550781 279.359375 351.957031 C 278.847656 354.402344 278.335938 356.855469 277.824219 359.304688 C 277.0625 362.960938 276.292969 366.617188 275.539062 370.273438 C 275.296875 371.441406 275.1875 372.660156 275.015625 373.84375 C 274.632812 376.394531 274.253906 378.957031 273.871094 381.507812 C 273.332031 385.164062 272.644531 388.828125 272.316406 392.503906 C 272.085938 395.0625 271.871094 397.621094 271.648438 400.175781 C 271.261719 399.742188 270.878906 399.300781 270.492188 398.859375 C 266.746094 394.570312 262.960938 390.316406 259.160156 386.066406 C 257.855469 380.832031 256.5625 375.589844 255.269531 370.347656 C 252.007812 357.117188 248.769531 343.882812 245.527344 330.648438 C 241.664062 314.851562 237.78125 299.054688 233.890625 283.265625 C 230.265625 268.554688 226.539062 253.867188 222.835938 239.179688 C 219.363281 225.433594 215.765625 211.722656 212.175781 198.007812 C 210.335938 190.96875 208.488281 183.933594 206.65625 176.890625 C 205.136719 171.015625 203.4375 165.1875 201.832031 159.332031 C 198.0625 145.621094 194.363281 131.890625 190.464844 118.210938 C 186.3125 103.625 182.238281 89.011719 177.980469 74.457031 C 175.238281 65.09375 172.496094 55.730469 169.757812 46.367188 C 168.464844 41.933594 167.125 37.519531 165.753906 33.109375 C 164.210938 28.152344 162.554688 23.242188 160.703125 18.390625 C 159.773438 15.96875 158.804688 13.566406 157.679688 11.230469 C 156.28125 8.328125 154.367188 5.042969 151.53125 3.34375 C 150.996094 3.019531 150.449219 2.71875 149.890625 2.433594 C 145.09375 0.0273438 139.003906 2.601562 136.855469 7.339844 C 135.789062 9.679688 135.699219 12.390625 136.578125 14.800781 C 137.175781 16.433594 138.164062 17.777344 139.429688 18.847656 C 139.890625 19.691406 140.316406 20.542969 140.714844 21.410156 C 144.3125 29.855469 146.886719 38.710938 149.601562 47.464844 C 153.246094 59.941406 156.964844 72.398438 160.53125 84.898438 C 163.191406 94.242188 165.851562 103.574219 168.507812 112.910156 C 170.046875 118.308594 171.628906 123.695312 173.113281 129.105469 C 177.675781 145.703125 182.242188 162.300781 186.804688 178.894531 C 187.972656 183.140625 189.0625 187.40625 190.171875 191.664062 C 192.8125 201.765625 195.453125 211.863281 198.09375 221.96875 C 201.710938 235.804688 205.179688 249.679688 208.675781 263.550781 C 212.332031 278.046875 215.902344 292.5625 219.480469 307.082031 C 222.550781 319.554688 225.589844 332.035156 228.648438 344.511719 C 229.554688 348.199219 230.453125 351.886719 231.351562 355.570312 C 229.941406 354.0625 228.527344 352.554688 227.109375 351.054688 C 223.125 346.835938 219.191406 342.558594 215.125 338.414062 C 212.359375 335.597656 209.597656 332.777344 206.832031 329.960938 C 204.871094 327.957031 202.945312 325.917969 200.921875 323.976562 C 201.160156 324.203125 201.394531 324.429688 201.632812 324.660156 C 195.636719 318.757812 189.632812 312.847656 183.546875 307.039062 C 181.179688 304.6875 178.640625 302.484375 176.191406 300.21875 C 172.394531 296.722656 168.609375 293.222656 164.816406 289.722656 C 159.925781 285.207031 154.8125 280.949219 149.757812 276.617188 C 146.695312 273.992188 143.632812 271.371094 140.5625 268.742188 C 138.441406 266.921875 136.125 265.296875 133.910156 263.597656 C 130.253906 260.78125 126.597656 257.972656 122.945312 255.15625 C 120.023438 252.902344 116.847656 250.96875 113.78125 248.929688 C 112.4375 248.03125 111.09375 247.132812 109.75 246.242188 C 108.644531 245.503906 107.492188 244.828125 106.347656 244.160156 C 105.246094 243.511719 104.113281 242.921875 102.972656 242.351562 C 101.785156 241.761719 100.511719 241.378906 99.25 240.972656 C 95.554688 239.789062 91.328125 241.128906 88.859375 244.074219 C 86.050781 247.433594 85.792969 252.449219 88.328125 256.039062 C 89.140625 257.183594 89.980469 258.28125 90.972656 259.265625 C 91.992188 260.285156 93.074219 261.222656 94.160156 262.171875 C 94.824219 262.757812 95.476562 263.367188 96.136719 263.960938 C 97.511719 265.214844 98.90625 266.449219 100.261719 267.714844 C 102.820312 270.105469 105.410156 272.464844 107.957031 274.863281 C 113.84375 280.40625 119.714844 285.964844 125.578125 291.53125 C 125.960938 291.894531 126.339844 292.257812 126.722656 292.617188 C 126.792969 292.683594 126.863281 292.75 126.933594 292.816406 C 126.886719 292.773438 126.839844 292.726562 126.792969 292.683594 C 126.804688 292.691406 126.8125 292.703125 126.820312 292.710938 C 127.023438 292.90625 127.226562 293.097656 127.429688 293.289062 C 127.164062 293.039062 126.898438 292.785156 126.632812 292.53125 C 126.632812 292.53125 126.632812 292.527344 126.628906 292.527344 C 130.34375 296.078125 134.0625 299.625 137.773438 303.175781 C 137.457031 302.871094 137.144531 302.570312 136.828125 302.269531 C 137.179688 302.605469 137.527344 302.941406 137.878906 303.273438 C 137.929688 303.320312 137.980469 303.367188 138.03125 303.417969 C 142.3125 307.550781 146.597656 311.675781 150.890625 315.789062 C 150.878906 315.777344 150.871094 315.765625 150.859375 315.753906 C 156.144531 320.851562 161.347656 326.03125 166.605469 331.15625 C 168.910156 333.398438 171.121094 335.746094 173.378906 338.039062 C 176.855469 341.570312 180.328125 345.109375 183.804688 348.640625 C 188.566406 353.472656 193.070312 358.5625 197.671875 363.542969 C 200.554688 366.660156 203.433594 369.78125 206.3125 372.898438 C 207.566406 374.261719 208.730469 375.703125 209.929688 377.121094 C 216.035156 384.355469 222.066406 391.660156 228.238281 398.835938 C 235.578125 408.171875 242.707031 417.722656 248.917969 427.863281 C 249.730469 429.226562 250.527344 430.601562 251.300781 431.988281 C 251.480469 432.3125 251.664062 432.640625 251.84375 432.964844 C 252.683594 435.171875 253.621094 437.34375 254.648438 439.492188 C 256.546875 443.464844 261.363281 445.5 265.570312 444.539062 C 270.304688 443.464844 273.691406 438.863281 273.1875 434 C 273.09375 433.136719 272.933594 432.292969 272.710938 431.46875 C 272.957031 431.6875 273.207031 431.902344 273.453125 432.117188 C 275.402344 433.832031 278.15625 434.625 280.71875 434.375 C 283.175781 434.136719 285.808594 432.910156 287.328125 430.902344 C 287.722656 430.375 288.101562 429.839844 288.453125 429.28125 C 289.308594 427.925781 289.96875 426.464844 290.160156 424.835938 " fill-opacity="1" fill-rule="nonzero"/><g fill="#9e660c" fill-opacity="1"><g transform="translate(186.816642, 417.021114)"><g><path d="M 2.15625 0.078125 C 1.851562 0.078125 1.613281 -0.00390625 1.4375 -0.171875 C 1.257812 -0.347656 1.171875 -0.578125 1.171875 -0.859375 C 1.171875 -1.140625 1.257812 -1.367188 1.4375 -1.546875 C 1.613281 -1.722656 1.851562 -1.8125 2.15625 -1.8125 C 2.46875 -1.8125 2.710938 -1.722656 2.890625 -1.546875 C 3.066406 -1.378906 3.15625 -1.15625 3.15625 -0.875 C 3.15625 -0.59375 3.066406 -0.363281 2.890625 -0.1875 C 2.710938 -0.0078125 2.46875 0.078125 2.15625 0.078125 Z M 2.15625 0.078125 "/></g></g></g></svg>