<svg xmlns="http://www.w3.org/2000/svg" version="1.1" xmlns:xlink="http://www.w3.org/1999/xlink" width="512" height="512" x="0" y="0" viewBox="0 0 426.667 426.667" style="enable-background:new 0 0 512 512" xml:space="preserve" class=""><g><path d="M362.667 384V0H64v384H21.333v42.667h384V384h-42.666zM192 42.667h42.667v42.667H192V42.667zM192 128h42.667v42.667H192V128zm0 85.333h42.667V256H192v-42.667zM149.333 256h-42.667v-42.667h42.667V256zm0-85.333h-42.667V128h42.667v42.667zm0-85.334h-42.667V42.667h42.667v42.666zM256 384h-85.333v-42.667c0-23.467 19.2-42.667 42.667-42.667S256 317.867 256 341.333V384zm64-128h-42.667v-42.667H320V256zm0-85.333h-42.667V128H320v42.667zm0-85.334h-42.667V42.667H320v42.666z" fill="#ffffff" opacity="1" data-original="#000000" class=""></path></g></svg>