<svg xmlns="http://www.w3.org/2000/svg" xmlns:xlink="http://www.w3.org/1999/xlink" width="580" zoomAndPan="magnify" viewBox="0 0 434.88 446.25" height="595" preserveAspectRatio="xMidYMid meet" version="1.0"><defs><g/><clipPath id="5a60db5edd"><path d="M 3 141 L 428 141 L 428 304.757812 L 3 304.757812 Z M 3 141 " clip-rule="nonzero"/></clipPath></defs><g clip-path="url(#5a60db5edd)"><path fill="#ff914d" d="M 234.3125 146.972656 C 214.742188 148.40625 193.210938 150.867188 169.714844 154.355469 C 169.652344 154.363281 169.589844 154.375 169.53125 154.386719 C 122.710938 164.449219 86.074219 174.746094 59.625 185.277344 C 84.179688 171.414062 116.070312 161.292969 155.292969 154.910156 L 155.308594 154.910156 C 182.835938 150.28125 209.167969 147.632812 234.308594 146.972656 Z M 11.269531 258.28125 C 15.589844 263.945312 21.929688 269.222656 30.296875 274.117188 C 38.636719 278.996094 49.042969 283.480469 61.515625 287.570312 C 53.667969 286.441406 46.722656 285.042969 40.675781 283.378906 L 40.671875 283.378906 C 35.136719 281.3125 30.34375 278.984375 26.289062 276.398438 C 18.503906 271.425781 13.496094 265.386719 11.269531 258.28125 Z M 272.644531 151.210938 C 302.941406 151.210938 326.613281 154.605469 343.664062 161.390625 C 344.011719 161.53125 344.375 161.597656 344.730469 161.597656 C 345.878906 161.597656 346.964844 160.90625 347.414062 159.773438 C 347.453125 159.675781 347.488281 159.574219 347.515625 159.472656 L 347.523438 159.472656 C 347.828125 159.558594 348.136719 159.640625 348.445312 159.726562 L 348.4375 159.726562 C 401.46875 177.238281 425.71875 200.738281 421.191406 230.230469 L 421.1875 230.230469 C 412.351562 257.375 378.976562 276.761719 321.058594 288.390625 L 321.054688 288.390625 C 275.289062 295.261719 232.792969 298.699219 193.574219 298.699219 C 176.035156 298.699219 159.148438 298.011719 142.917969 296.636719 L 142.914062 296.636719 C 172.847656 295.941406 207.746094 293.746094 247.613281 290.046875 C 249.199219 289.898438 250.367188 288.492188 250.222656 286.902344 C 250.082031 285.402344 248.824219 284.28125 247.347656 284.28125 C 247.257812 284.28125 247.167969 284.285156 247.078125 284.292969 C 198.027344 288.84375 156.59375 291.121094 122.78125 291.121094 C 113.6875 291.121094 105.144531 290.957031 97.152344 290.625 C 92.832031 289.839844 88.566406 288.996094 84.355469 288.09375 L 84.351562 288.09375 C 62.515625 282.625 45.46875 276.300781 33.214844 269.132812 C 19.574219 261.148438 12.058594 252.078125 10.660156 241.910156 C 12.152344 234.097656 15.945312 225.402344 22.042969 215.828125 L 22.039062 215.828125 C 25.253906 211.9375 28.789062 208.214844 32.644531 204.65625 C 56.460938 189.578125 102.460938 174.714844 170.644531 160.058594 L 170.640625 160.058594 C 210.398438 154.160156 244.402344 151.210938 272.644531 151.210938 Z M 246.828125 141.027344 C 217.625 141.027344 186.796875 143.753906 154.347656 149.210938 C 97.324219 158.488281 55.324219 175.671875 28.347656 200.761719 C 20.042969 206.152344 14.292969 211.605469 11.097656 217.117188 C 5.867188 226.0625 3.683594 234.429688 4.550781 242.222656 C 1.726562 258.519531 7.9375 271.535156 23.179688 281.269531 C 27.605469 284.09375 32.804688 286.617188 38.769531 288.835938 C 38.847656 288.863281 38.925781 288.890625 39.007812 288.910156 C 53.273438 292.859375 72.390625 295.339844 96.359375 296.355469 C 126.207031 301.769531 158.613281 304.476562 193.578125 304.476562 C 233.117188 304.476562 275.925781 301.015625 322 294.089844 C 322.046875 294.082031 322.09375 294.074219 322.140625 294.066406 C 382.488281 281.957031 417.363281 261.183594 426.769531 231.742188 C 426.816406 231.601562 426.847656 231.457031 426.871094 231.3125 C 432.039062 198.484375 406.46875 172.78125 350.15625 154.207031 C 350.109375 154.191406 350.0625 154.179688 350.015625 154.164062 C 318.226562 145.40625 283.828125 141.027344 246.828125 141.027344 Z M 246.828125 141.027344 " fill-opacity="1" fill-rule="nonzero"/></g><g fill="#9e660c" fill-opacity="1"><g transform="translate(186.816642, 417.021114)"><g><path d="M 2.15625 0.078125 C 1.851562 0.078125 1.613281 -0.00390625 1.4375 -0.171875 C 1.257812 -0.347656 1.171875 -0.578125 1.171875 -0.859375 C 1.171875 -1.140625 1.257812 -1.367188 1.4375 -1.546875 C 1.613281 -1.722656 1.851562 -1.8125 2.15625 -1.8125 C 2.46875 -1.8125 2.710938 -1.722656 2.890625 -1.546875 C 3.066406 -1.378906 3.15625 -1.15625 3.15625 -0.875 C 3.15625 -0.59375 3.066406 -0.363281 2.890625 -0.1875 C 2.710938 -0.0078125 2.46875 0.078125 2.15625 0.078125 Z M 2.15625 0.078125 "/></g></g></g></svg>