<svg xmlns="http://www.w3.org/2000/svg" xmlns:xlink="http://www.w3.org/1999/xlink" width="580" zoomAndPan="magnify" viewBox="0 0 434.88 446.25" height="595" preserveAspectRatio="xMidYMid meet" version="1.0"><defs><g/><clipPath id="632b8c3dcc"><path d="M 0.304688 182 L 434.457031 182 L 434.457031 265.015625 L 0.304688 265.015625 Z M 0.304688 182 " clip-rule="nonzero"/></clipPath></defs><g clip-path="url(#632b8c3dcc)"><path fill="#ff914d" d="M 432.660156 228.417969 C 432.648438 228.410156 432.597656 228.382812 432.527344 228.347656 L 410.960938 188.46875 C 410.210938 187.074219 408.472656 186.558594 407.085938 187.3125 C 405.691406 188.0625 405.175781 189.796875 405.925781 191.191406 L 423.695312 224.050781 C 404.632812 215.234375 356.660156 195.4375 294.335938 186.925781 C 246.746094 180.425781 200.183594 181.660156 155.945312 190.597656 C 100.621094 201.773438 48.820312 225.085938 1.972656 259.894531 C 0.707031 260.835938 0.441406 262.625 1.382812 263.894531 C 1.988281 264.710938 2.945312 265.113281 3.890625 265.042969 C 4.414062 265.003906 4.933594 264.820312 5.386719 264.488281 C 51.515625 230.214844 102.511719 207.25 156.953125 196.234375 C 200.535156 187.414062 246.425781 186.179688 293.355469 192.566406 C 352.453125 200.609375 398.445312 218.910156 418.691406 228.050781 C 409.789062 228 396.207031 229.183594 377.054688 233.988281 C 375.519531 234.371094 374.589844 235.925781 374.972656 237.457031 C 375.316406 238.828125 376.59375 239.71875 377.957031 239.617188 C 378.117188 239.605469 378.28125 239.578125 378.445312 239.539062 C 415.125 230.339844 430.359375 234.9375 430.488281 234.980469 C 431.601562 235.347656 432.832031 235 433.582031 234.101562 C 434.21875 233.34375 434.402344 232.328125 434.117188 231.410156 C 434.3125 230.234375 433.769531 229.011719 432.660156 228.417969 " fill-opacity="1" fill-rule="nonzero"/></g><g fill="#9e660c" fill-opacity="1"><g transform="translate(186.816642, 417.021114)"><g><path d="M 2.15625 0.078125 C 1.851562 0.078125 1.613281 -0.00390625 1.4375 -0.171875 C 1.257812 -0.347656 1.171875 -0.578125 1.171875 -0.859375 C 1.171875 -1.140625 1.257812 -1.367188 1.4375 -1.546875 C 1.613281 -1.722656 1.851562 -1.8125 2.15625 -1.8125 C 2.46875 -1.8125 2.710938 -1.722656 2.890625 -1.546875 C 3.066406 -1.378906 3.15625 -1.15625 3.15625 -0.875 C 3.15625 -0.59375 3.066406 -0.363281 2.890625 -0.1875 C 2.710938 -0.0078125 2.46875 0.078125 2.15625 0.078125 Z M 2.15625 0.078125 "/></g></g></g></svg>