<svg width="984" height="168" viewBox="0 0 984 168" fill="none" xmlns="http://www.w3.org/2000/svg">
<path fill-rule="evenodd" clip-rule="evenodd" d="M162.268 168H297.637L305.582 128.681H233.199C220.683 130.344 208.492 132.025 196.66 133.716C186.957 135.103 177.496 136.499 168.355 137.876L162.268 168ZM217.449 121.364L221.316 102.229H301.395L308.761 65.7705H228.683L233.836 40.272H322.256L330.152 1.19103H195.974L169.957 129.945L174.577 129.083C188.036 126.579 202.356 123.991 217.449 121.364ZM0 168H46.2351L59.0438 104.613H118.387L110.923 141.552C124.969 138.641 141.134 135.419 159.088 131.999L185.52 1.19103H139.285L126.669 63.6251H67.3257L79.9409 1.19103H33.7059L0 168ZM109.806 147.083L105.579 168H151.814L157.569 139.519C140.078 142.202 123.955 144.784 109.806 147.083ZM806.544 168H870.177C924.038 168 963.616 139.212 978.103 98.1666C936.649 95.4286 882.475 91.6967 822.311 89.9706L806.544 168ZM983.992 66.4443C984.545 27.386 956.864 1.19103 904.836 1.19103H840.25L826.927 67.1216C836.551 66.9102 845.943 66.7262 855.062 66.5662C906.572 65.6618 949.52 65.5388 983.992 66.4443ZM616.836 168H665.216L683.199 137.974H747.786L753.635 168H803.208L785.819 89.2036C779.318 89.1188 772.769 89.0615 766.174 89.0364C757.192 89.003 748.13 89.0281 738.999 89.1081L741.473 101.992H704.055L711.558 89.5082C696.15 89.8176 680.59 90.2704 664.931 90.8498L616.836 168ZM781.204 68.2887L766.133 0H721.566L676.534 72.2369C692.256 71.501 707.819 70.8404 723.135 70.2503L732.417 54.809L735.292 69.7939C750.921 69.2229 766.259 68.7236 781.204 68.2887ZM499.103 168H545.338L554.969 120.341H578.087C606.434 120.341 631.581 110.541 647.123 91.5594C602.557 93.46 557.386 96.315 512.897 99.7292L499.103 168ZM657.907 73.14C659.532 69.0353 660.832 64.6727 661.766 60.0509L661.863 59.5742C669.326 22.6387 646.49 1.19103 604.545 1.19103H532.809L516.388 82.4542C531.923 81.1521 547.609 79.9456 563.357 78.8274L571.196 40.0343H593.121C609.567 40.0343 618.321 47.4216 615.432 61.7185L615.336 62.1952C614.233 67.6521 611.576 72.3121 607.715 75.915C624.507 74.8984 641.274 73.9762 657.907 73.14ZM443.969 168H490.206L503.859 100.432C491.374 101.412 478.949 102.435 466.614 103.492C463.347 103.772 460.088 104.054 456.833 104.339L443.969 168ZM507.336 83.2235L523.911 1.19103H477.675L460.202 87.665C470.115 86.6544 480.123 85.6808 490.22 84.7514C495.899 84.2282 501.606 83.7181 507.336 83.2235ZM308.6 168H435.628L443.814 127.489H363.021L365.941 113.038C349.898 114.709 334.124 116.426 318.667 118.181L308.6 168ZM368.923 98.279L388.541 1.19103H342.306L321.368 104.812C336.791 102.585 352.661 100.398 368.923 98.279Z" fill="#1D1D1D"/>
</svg>
