<svg width="984" height="169" viewBox="0 0 984 169" fill="none" xmlns="http://www.w3.org/2000/svg">
<path fill-rule="evenodd" clip-rule="evenodd" d="M162.268 169H297.637L305.582 129.447H233.199C220.683 131.12 208.492 132.811 196.66 134.512C186.957 135.908 177.496 137.311 168.355 138.697L162.268 169ZM217.449 122.087L221.316 102.838H301.395L308.761 66.162H228.683L233.836 40.5118H322.256L330.152 1.19812H195.974L169.957 130.719L174.577 129.851C188.036 127.332 202.356 124.729 217.449 122.087ZM0 169H46.2351L59.0438 105.235H118.387L110.923 142.394C124.969 139.466 141.134 136.225 159.088 132.784L185.52 1.19812H139.285L126.669 64.0038H67.3257L79.9409 1.19812H33.7059L0 169ZM109.806 147.958L105.579 169H151.814L157.569 140.349C140.078 143.048 123.955 145.646 109.806 147.958ZM806.544 169H870.177C924.038 169 963.616 140.04 978.103 98.751C936.649 95.9967 882.475 92.2426 822.311 90.5061L806.544 169ZM983.992 66.8398C984.545 27.549 956.864 1.19812 904.836 1.19812H840.25L826.927 67.5212C836.551 67.3085 845.943 67.1234 855.062 66.9624C906.572 66.0527 949.52 65.9289 983.992 66.8398ZM616.836 169H665.216L683.199 138.795H747.786L753.635 169H803.208L785.819 89.7346C779.318 89.6493 772.769 89.5916 766.174 89.5664C757.192 89.5327 748.13 89.558 738.999 89.6385L741.473 102.599H704.055L711.558 90.041C696.15 90.3523 680.59 90.8077 664.931 91.3905L616.836 169ZM781.204 68.6952L766.133 0H721.566L676.534 72.6669C692.256 71.9266 707.819 71.2621 723.135 70.6684L732.417 55.1353L735.292 70.2094C750.921 69.635 766.259 69.1326 781.204 68.6952ZM499.103 169H545.338L554.969 121.057H578.087C606.434 121.057 631.581 111.199 647.123 92.1044C602.557 94.0163 557.386 96.8883 512.897 100.323L499.103 169ZM657.907 73.5753C659.532 69.4463 660.832 65.0577 661.766 60.4083L661.863 59.9289C669.326 22.7735 646.49 1.19812 604.545 1.19812H532.809L516.388 82.945C531.923 81.6352 547.609 80.4215 563.357 79.2967L571.196 40.2726H593.121C609.567 40.2726 618.321 47.7039 615.432 62.0859L615.336 62.5654C614.233 68.0547 611.576 72.7425 607.715 76.3669C624.507 75.3442 641.274 74.4165 657.907 73.5753ZM443.969 169H490.206L503.859 101.029C491.374 102.016 478.949 103.045 466.614 104.108C463.347 104.389 460.088 104.673 456.833 104.96L443.969 169ZM507.336 83.7189L523.911 1.19812H477.675L460.202 88.1868C470.115 87.1702 480.123 86.1908 490.22 85.2559C495.899 84.7295 501.606 84.2164 507.336 83.7189ZM308.6 169H435.628L443.814 128.248H363.021L365.941 113.711C349.898 115.392 334.124 117.119 318.667 118.884L308.6 169ZM368.923 98.864L388.541 1.19812H342.306L321.368 105.436C336.791 103.196 352.661 100.996 368.923 98.864Z" fill="white"/>
</svg>
