<svg width="68" height="75" viewBox="0 0 68 75" fill="none" xmlns="http://www.w3.org/2000/svg">
<path fill-rule="evenodd" clip-rule="evenodd" d="M22.4259 69.311C16.0259 67.515 9.32534 66.609 2.82534 65.779C1.42534 65.605 0.125535 66.576 0.0255346 67.944C-0.174465 69.313 0.826121 70.565 2.12612 70.739C8.42612 71.538 14.9255 72.3929 21.0255 74.1219C22.3255 74.4969 23.7261 73.725 24.1261 72.397C24.5261 71.07 23.7259 69.687 22.4259 69.311Z" fill="white"/>
<path fill-rule="evenodd" clip-rule="evenodd" d="M41.8251 43.848C31.5251 33.337 19.9251 24.179 9.8251 13.386C8.9251 12.378 7.3251 12.324 6.3251 13.265C5.3251 14.207 5.22549 15.791 6.22549 16.799C16.3255 27.623 27.9255 36.811 38.2255 47.353C39.2255 48.337 40.8251 48.351 41.8251 47.383C42.7251 46.416 42.8251 44.832 41.8251 43.848Z" fill="white"/>
<path fill-rule="evenodd" clip-rule="evenodd" d="M61.1264 3.41896C61.4264 9.43496 61.7259 15.451 62.0259 21.468C62.0259 22.846 63.2264 23.91 64.6264 23.843C66.0264 23.775 67.0259 22.602 67.0259 21.223C66.7259 15.197 66.4264 9.17196 66.1264 3.14696C66.0264 1.76896 64.8262 0.71196 63.4262 0.78696C62.1262 0.86196 61.0264 2.04196 61.1264 3.41896Z" fill="white"/>
</svg>
