<svg xmlns="http://www.w3.org/2000/svg" version="1.1" xmlns:xlink="http://www.w3.org/1999/xlink" width="512" height="512" x="0" y="0" viewBox="0 0 512 512" style="enable-background:new 0 0 512 512" xml:space="preserve" class=""><g><path d="M416 106.667A10.667 10.667 0 0 0 426.667 96V32a10.667 10.667 0 1 0-21.333 0v64A10.667 10.667 0 0 0 416 106.667zM458.667 149.333a10.667 10.667 0 0 0 10.667-10.667v-64a10.667 10.667 0 1 0-21.333 0v64a10.667 10.667 0 0 0 10.666 10.667zM106.667 42.667A10.667 10.667 0 0 0 96 53.333v64a10.667 10.667 0 0 0 21.333 0v-64a10.667 10.667 0 0 0-10.666-10.666zM64 106.667a10.667 10.667 0 0 0-10.667 10.667v64a10.667 10.667 0 0 0 21.333 0v-64A10.667 10.667 0 0 0 64 106.667zM476.875 280.458a10.663 10.663 0 0 0-15.083 0L448 294.248V192a10.667 10.667 0 0 0-21.333 0v102.248l-13.792-13.79a10.666 10.666 0 0 0-15.083 15.083l32 32a10.663 10.663 0 0 0 15.083 0l32-32a10.663 10.663 0 0 0 0-15.083zM266.667 64A117.333 117.333 0 1 0 384 181.333 117.333 117.333 0 0 0 266.667 64zm18.75 167.508a42.719 42.719 0 0 1-8.083 3.044v10.782a10.667 10.667 0 0 1-21.333 0v-10.25a57.623 57.623 0 0 1-22.318-10.2 10.666 10.666 0 1 1 12.635-17.184c14.719 10.82 26.266 6.385 29.469 4.771 4.516-2.286 6.88-5.727 6.88-7.943 0-5.062-4.672-7.7-15.141-11.7-1.885-.721-3.641-1.4-5.167-2.068-1.047-.464-2.307-.935-3.687-1.461-9.526-3.615-29.339-11.141-29.339-31.828 0-10.841 7.12-21.18 18.583-26.979a42.67 42.67 0 0 1 8.083-3v-10.16a10.667 10.667 0 1 1 21.333 0v9.655a57.444 57.444 0 0 1 22.318 10.123 10.666 10.666 0 1 1-12.634 17.19c-14.724-10.82-26.271-6.385-29.469-4.771-4.516 2.286-6.88 5.727-6.88 7.943 0 5.018 5.474 8.049 15.578 11.885 1.776.674 3.385 1.292 4.729 1.885 1.224.539 2.646 1.076 4.161 1.656C285.224 176.753 304 183.927 304 204.529c0 10.841-7.12 21.179-18.583 26.979zM478.453 417.359a15.421 15.421 0 0 1-9.227 8.107l-186.56 62.186a57.228 57.228 0 0 1-44.053-3.093l-54.293-27.146a50.529 50.529 0 0 0-30.934-4.641l-43.147 7.2v-93.76l73.867-24.586a57.977 57.977 0 0 1 36.214-.107l93.333 30.56a14.911 14.911 0 0 1-7.734 28.693l-58.667-10.667a10.654 10.654 0 1 0-3.839 20.96l58.667 10.667a33.562 33.562 0 0 0 6.505.587 35.959 35.959 0 0 0 22.667-8l130.721-19.306a15.728 15.728 0 0 1 16.479 22.346zM88.906 350.426v122.933a11.711 11.711 0 0 1-11.68 11.68H43.68A11.676 11.676 0 0 1 32 473.359V350.426a11.711 11.711 0 0 1 11.68-11.68h33.547a11.746 11.746 0 0 1 11.679 11.68z" fill="#004080" opacity="1" data-original="#000000" class=""></path></g></svg>