<svg xmlns="http://www.w3.org/2000/svg" version="1.1" xmlns:xlink="http://www.w3.org/1999/xlink" width="512" height="512" x="0" y="0" viewBox="0 0 512 512" style="enable-background:new 0 0 512 512" xml:space="preserve" class=""><g><path d="M384.056 320.112c-52.988 0-95.944 42.956-95.944 95.944S331.068 512 384.056 512 480 469.044 480 416.056s-42.956-95.944-95.944-95.944zm47.765 122.441-21.213 21.213-26.553-26.553-26.553 26.553-21.213-21.213L362.843 416l-26.553-26.553 21.213-21.213 26.553 26.553 26.553-26.553 21.213 21.213L405.269 416z" fill="#004080" opacity="1" data-original="#000000" class=""></path><path d="M32 64v384h230.204a126.143 126.143 0 0 1-4.092-31.944c0-58.479 39.858-107.643 93.888-121.822V175H241V64zm48.066 49h95.867v30H80.066zm0 64H224v30H80.066zM224 399H80.066v-30H224zm47.934-64H80.066v-30h191.867v30zm32-94v30H80.066v-30z" fill="#004080" opacity="1" data-original="#000000" class=""></path><path d="M271 79v66h66zM335 15v66h66zM268.426 34 305 70.573V0H96v34zM345.427 111 382 147.574v142.564c9.99-.234 23.257 1.194 34 4.066V111z" fill="#004080" opacity="1" data-original="#000000" class=""></path></g></svg>