<svg xmlns="http://www.w3.org/2000/svg" version="1.1" xmlns:xlink="http://www.w3.org/1999/xlink" width="512" height="512" x="0" y="0" viewBox="0 0 32 32" style="enable-background:new 0 0 512 512" xml:space="preserve" class=""><g><g data-name="10-Money-bag"><path d="M11.38 8h9.24l2.27-4.55a1 1 0 0 0-.3-1.25 1 1 0 0 0-1.29.08A3.43 3.43 0 0 1 19 3a3.44 3.44 0 0 1-2.29-.71 1 1 0 0 0-1.41 0A3.43 3.43 0 0 1 13 3a3.44 3.44 0 0 1-2.29-.71 1 1 0 0 0-1.6 1.16zM21.24 10H10.76C8.62 12.59 5 17.73 5 23c0 4.57 3.48 7 6 7h10c2.52 0 6-2.43 6-7 0-5.27-3.62-10.41-5.76-13zM17 24v1a1 1 0 0 1-2 0v-1a3 3 0 0 1-2.59-1.5 1 1 0 1 1 1.72-1 1 1 0 0 0 .87.5h2a1 1 0 0 0 0-2h-2a3 3 0 0 1 0-6v-1a1 1 0 0 1 2 0v1a3 3 0 0 1 2.59 1.5 1 1 0 1 1-1.72 1A1 1 0 0 0 17 16h-2a1 1 0 0 0 0 2h2a3 3 0 0 1 0 6z" fill="#004080" opacity="1" data-original="#000000" class=""></path></g></g></svg>