<svg xmlns="http://www.w3.org/2000/svg" version="1.1" xmlns:xlink="http://www.w3.org/1999/xlink" width="512" height="512" x="0" y="0" viewBox="0 0 512.001 512.001" style="enable-background:new 0 0 512 512" xml:space="preserve" class=""><g><path d="M507.606 93.77a14.991 14.991 0 0 0 0-21.212L439.44 4.394A14.948 14.948 0 0 0 428.835 0c-3.84 0-7.678 1.465-10.608 4.394l-57.559 57.558 89.379 89.377zM1.073 491.43a15 15 0 0 0 19.497 19.497l104.424-41.772-82.154-82.152zM400.458 289.26c-6.664 0-13.359.597-20.006 1.813L220.929 131.549c6.541-35.789-4.854-73.016-30.771-98.936C168.818 11.274 140.24.016 111.282.014a111.022 111.022 0 0 0-47.907 10.845A15 15 0 0 0 59.233 35l53.664 53.664-24.23 24.23-53.668-53.663a15.009 15.009 0 0 0-13.142-4.178 15.007 15.007 0 0 0-11 8.32c-20.303 42.521-11.558 93.47 21.76 126.783 21.105 21.106 49.71 32.582 78.932 32.582 6.662 0 13.354-.597 20-1.811L291.076 380.45c-6.545 35.787 4.846 73.01 30.764 98.932 21.346 21.343 49.922 32.602 78.883 32.602a111.065 111.065 0 0 0 47.906-10.846 14.997 14.997 0 0 0 8.318-11 14.998 14.998 0 0 0-4.178-13.143l-53.664-53.662 24.23-24.23 53.66 53.664a14.99 14.99 0 0 0 13.142 4.178 15.005 15.005 0 0 0 11-8.318c20.311-42.517 11.568-93.469-21.754-126.788-21.104-21.105-49.706-32.579-78.925-32.579z" fill="#004080" opacity="1" data-original="#000000" class=""></path><path d="m60.396 362.161 84.952-84.952 89.365 89.366-84.951 84.952zM277.169 145.433l62.234-62.235 89.366 89.366-62.234 62.234z" fill="#004080" opacity="1" data-original="#000000" class=""></path></g></svg>