<svg xmlns="http://www.w3.org/2000/svg" version="1.1" xmlns:xlink="http://www.w3.org/1999/xlink" width="512" height="512" x="0" y="0" viewBox="0 0 512 512" style="enable-background:new 0 0 512 512" xml:space="preserve" class=""><g><path fill-rule="evenodd" d="M130.3 495.335a.766.766 0 0 1-.729.709H39.379a.766.766 0 0 1-.73-.709V315.312a.766.766 0 0 1 .73-.709h90.194a.765.765 0 0 1 .729.709v180.023zm23.67-383.9-40.946-3.824L96.7 69.846a8.088 8.088 0 0 0-14.887 0L65.5 107.614l-40.96 3.824a8.11 8.11 0 0 0-4.6 14.151l30.859 27.2-8.977 40.161a8.086 8.086 0 0 0 3.141 8.318 8.261 8.261 0 0 0 4.762 1.53 7.986 7.986 0 0 0 4.135-1.1l35.4-20.987 35.393 20.989a8.114 8.114 0 0 0 12.047-8.75l-8.983-40.159 30.86-27.2a8.043 8.043 0 0 0 2.351-8.557 8.137 8.137 0 0 0-6.951-5.594zm340.439 5.594a8.139 8.139 0 0 0-6.951-5.594l-40.958-3.821-16.313-37.768a8.091 8.091 0 0 0-14.891 0l-16.327 37.768-40.942 3.824a8.134 8.134 0 0 0-6.951 5.594 8.053 8.053 0 0 0 2.347 8.557l30.86 27.2-8.978 40.159a8.112 8.112 0 0 0 12.042 8.748l35.392-20.987 35.4 20.987a8 8 0 0 0 4.14 1.1 8.273 8.273 0 0 0 4.762-1.53 8.086 8.086 0 0 0 3.141-8.318l-8.982-40.157 30.859-27.2a8.06 8.06 0 0 0 2.352-8.557zM351.664 69.511a8.147 8.147 0 0 1-2.352 8.606l-43.8 38.58 12.75 56.938a8.09 8.09 0 0 1-12.038 8.749L256 152.648l-50.226 29.736a8.113 8.113 0 0 1-12.043-8.749l12.75-56.938-43.791-38.58a8.141 8.141 0 0 1 4.589-14.2l58.115-5.45 23.165-53.591a8.112 8.112 0 0 1 14.877 0L286.6 58.468l58.115 5.45a8.205 8.205 0 0 1 6.946 5.593zm50 279.637h-29.871a8.586 8.586 0 1 0 0 17.172h13.185a18.562 18.562 0 0 1 18.555 18.54c0 9.674-9.553 19.5-19.345 20.362A35.646 35.646 0 0 0 373 403.4a8.612 8.612 0 0 0 0 17.223 17.767 17.767 0 0 1 6.367 1.114 3.533 3.533 0 0 0 .684.254 18.576 18.576 0 0 1 11.488 17.171c0 9.472-9.918 19.1-20.033 19.8a35.778 35.778 0 0 0-9.366-1.266 8.586 8.586 0 1 0 0 17.172 18.421 18.421 0 0 1 5.313.81 3.1 3.1 0 0 1 .618.2A18.545 18.545 0 0 1 362.139 512H222.35a14.535 14.535 0 0 1-10.344-4.052c-18.24-16.969-34.186-24.669-64.527-31V340.082l1.529-1.47c42.154-40.978 52.487-46.246 54.676-46.905a8.294 8.294 0 0 0 3.515-1.621 104.735 104.735 0 0 0 39.409-64.735c.05-.3.1-.608.117-.912l2.471-35.052a16.39 16.39 0 0 1 13.788-8.662 16.556 16.556 0 0 1 14.989 8.105 131.536 131.536 0 0 1-5.552 110.627 8.559 8.559 0 0 0 7.613 12.562h121.625a18.565 18.565 0 0 1 0 37.129zm-300.482-6.331a8.591 8.591 0 0 0-17.182 0v1.064a8.591 8.591 0 0 0 17.182 0z" fill="#004080" opacity="1" data-original="#000000" class=""></path></g></svg>