<svg xmlns="http://www.w3.org/2000/svg" version="1.1" xmlns:xlink="http://www.w3.org/1999/xlink" width="512" height="512" x="0" y="0" viewBox="0 0 64 64" style="enable-background:new 0 0 512 512" xml:space="preserve" class=""><g><path d="M59.98 31.948c-1.327-3.026-2.785-6.019-4.153-9.035-.239-.467-.375-1.099-.922-1.295l-12.908-4.95-2.664-5.215a1.003 1.003 0 0 0-1.271-.47l-2.161.89a1 1 0 0 0 .762 1.85l1.308-.54c1.509 2.964 11.904 23.239 13.663 26.696l-8.04 3.58-13.748-26.938 3.115-1.277a1 1 0 0 0-.76-1.851c-2.478 1.102-8.574 3.33-11.202 4.264a1.009 1.009 0 0 0-.549 1.394l3.443 6.745-6.31 2.327A1 1 0 0 0 18.274 30l6.534-2.41 2.643 5.179-6.114 2.547-8.286-3.395 1.36-.5a1 1 0 0 0-.69-1.878L9.98 30.92a.989.989 0 0 0-.58.479s-5.276 9.958-5.287 9.98a1.016 1.016 0 0 0 .49 1.387c.028.006 16.344 7.024 16.373 7.018a1.02 1.02 0 0 0 .77-.008l11.735-5.2 4.07 7.974a1.018 1.018 0 0 0 1.309.455l15.063-6.891a1 1 0 0 0 .578-1.012l-.5-4.841c-.021-.104-.1-.335-.104-.353l-1.823-3.564 7.339-3.253a1.06 1.06 0 0 0 .568-1.143zM20.34 47.342 6.389 41.355l4.354-8.219 9.599 3.933zm23.033-28.004 8.494 3.257-5.628 2.346zM22.34 47.324V37.065l6.023-2.51 4.205 8.238zm16.198 2.763L22.746 19.15l5.227-1.9 14.01 27.453zm13.613-8.25.285 2.757-11.324 5.18 2.702-4.223zm-.991-7.276-4.008-7.834 6.903-2.877 3.617 7.824z" fill="#ff5d21" opacity="1" data-original="#000000"></path></g></svg>