<svg xmlns="http://www.w3.org/2000/svg" version="1.1" xmlns:xlink="http://www.w3.org/1999/xlink" width="512" height="512" x="0" y="0" viewBox="0 0 128 128" style="enable-background:new 0 0 512 512" xml:space="preserve" class=""><g><path d="M121.693 15.172H86.1l-1.581-9.163a1.751 1.751 0 0 0-1.725-1.452H45.206a1.75 1.75 0 0 0-1.725 1.452L41.9 15.172H6.307a1.751 1.751 0 0 0-1.75 1.75v7.966a5.756 5.756 0 0 0 4.766 5.66v67.843a1.751 1.751 0 0 0 1.75 1.75H62.25v11.189a6.185 6.185 0 1 0 3.5 0v-11.189h51.177a1.751 1.751 0 0 0 1.75-1.75V30.548a5.756 5.756 0 0 0 4.766-5.66v-7.966a1.751 1.751 0 0 0-1.75-1.75zM66.685 117.258A2.685 2.685 0 1 1 64 114.574a2.688 2.688 0 0 1 2.685 2.684zM46.679 8.057h34.642l1.23 7.115h-37.1zM12.823 96.641v-66h102.354v66zm107.12-71.753a2.252 2.252 0 0 1-2.25 2.25H10.307a2.252 2.252 0 0 1-2.25-2.25v-6.216h111.886z" fill="#ff5d21" opacity="1" data-original="#000000" class=""></path><path d="M82.175 39.317a24.309 24.309 0 0 0-17.26 41.44c.023.025.04.054.064.078s.054.042.079.065a24.317 24.317 0 1 0 17.117-41.583zm20.734 22.573H83.925V42.906a20.835 20.835 0 0 1 18.984 18.984zM80.425 42.906v20.009L66.28 77.06a20.787 20.787 0 0 1 14.145-34.154zm1.75 41.556a20.722 20.722 0 0 1-13.42-4.927L82.9 65.39h20.009a20.84 20.84 0 0 1-20.734 19.072zM47.315 75.855H23.252a1.75 1.75 0 1 0 0 3.5h24.063a1.75 1.75 0 0 0 0-3.5zM47.315 39.317H23.252a1.75 1.75 0 0 0 0 3.5h24.063a1.75 1.75 0 0 0 0-3.5zM47.315 51.5H23.252a1.75 1.75 0 1 0 0 3.5h24.063a1.75 1.75 0 0 0 0-3.5zM47.315 63.676H23.252a1.75 1.75 0 1 0 0 3.5h24.063a1.75 1.75 0 0 0 0-3.5z" fill="#ff5d21" opacity="1" data-original="#000000" class=""></path></g></svg>