<svg width="347" height="47" viewBox="0 0 347 47" fill="none" xmlns="http://www.w3.org/2000/svg">
<mask id="mask0_1_21" style="mask-type:luminance" maskUnits="userSpaceOnUse" x="0" y="0" width="347" height="47">
<path d="M0 0H347V47H0V0Z" fill="white"/>
</mask>
<g mask="url(#mask0_1_21)">
<path d="M142.897 39.245V0.0195923H131.488V1.27293C135.644 1.64501 136.977 2.78084 136.977 5.87501V39.1079C136.977 42.9463 135.781 44.5129 132.997 44.5129C129.9 44.5129 128.586 42.9463 128.586 39.1079V25.1842C128.586 17.9383 124.861 14.2371 117.49 14.2371C111.432 14.2371 106.08 16.685 105.962 21.1696C105.904 23.2454 106.962 24.9492 109.06 24.9492C111.158 24.9492 112.079 23.3825 112.079 21.5417C112.079 17.5075 113.412 15.8038 117.255 15.8038C120.725 15.8038 122.803 17.3704 122.803 23.4804C122.803 25.4975 122.117 25.8696 117 27.7692C108.178 31.0983 103.826 33.2525 103.826 38.9121C103.826 44.0821 107.413 46.4713 113.275 46.4713C118.137 46.4713 121.274 44.8263 122.803 41.0663C123.371 44.3367 125.018 46.0404 128.41 46.0404H148.387V44.8458C144.093 44.4738 142.897 43.2008 142.897 39.245ZM122.783 35.9158C122.783 40.1263 120.078 44.415 115.275 44.415C112.059 44.415 110.177 42.3979 110.177 38.6183C110.177 33.5267 112.706 31.1963 118.372 29.0421C120.45 28.2196 121.842 27.7104 122.783 27.2208V35.9158ZM76.5949 17.6446C76.5949 19.4071 75.5166 21.1108 73.7522 21.1108C71.6153 21.1108 71.3604 18.6629 69.2824 18.6629C66.126 18.6629 62.9697 25.7129 62.9697 31.3725V39.6171C62.9697 43.0246 64.3028 44.2192 68.8903 44.7871V46.0404H51.8147V44.8458C55.716 44.2192 57.108 42.77 57.108 39.4408V20.9933C57.108 17.8404 56.1081 16.8417 51.9324 16.0779V14.8833H62.8325L62.7149 23.5H63.2246C65.0086 18.4475 68.5178 14.2371 72.6936 14.2371C75.2225 14.2371 76.5949 15.6275 76.5949 17.6446ZM90.2592 14.2567C81.7508 14.2567 76.3988 20.3667 76.3988 30.9417C76.3988 41.5167 81.3195 46.4908 89.8279 46.4908C95.4348 46.4908 99.1597 44.3563 101.179 38.9317L99.9242 38.305C98.2186 42.3979 95.1995 44.415 90.965 44.415C84.9856 44.415 83.28 39.6954 83.28 29.7471V28.9833H101.61V26.0263C101.493 18.4671 97.258 14.2567 90.2592 14.2567ZM95.3564 27.4167H83.2996C83.6329 19.4267 85.7698 15.8233 89.8671 15.8233C93.3371 15.8233 95.2191 19.1525 95.3564 25.6542V27.4167Z" fill="#D72228"/>
<path d="M167.403 43.1617L168.089 44.2975C165.952 45.6292 163.306 46.4321 160.326 46.4321C155.287 46.4321 152.131 44.0429 152.131 38.9317V16.3913H147.465V15.2554C152.249 13.865 155.915 10.1638 156.993 5.11127H158.189V14.805H167.952V16.45H158.189V38.1092C158.189 42.3979 159.522 44.0821 163.364 44.0821C164.933 44.0821 166.266 43.6317 167.403 43.1421V43.1617ZM333.708 39.4996V24.0679C333.708 17.39 330.297 14.1784 324.318 14.1784C319.044 14.1784 316.339 16.5675 315.123 21.2871H314.77C314.417 16.6654 311.359 14.1784 305.909 14.1784C300.459 14.1784 297.616 16.5675 296.479 21.2871H296.087L296.146 14.8638H285.363V16.0584C289.265 16.6263 290.539 17.7033 290.539 20.7779V39.4213C290.539 42.7504 289.147 44.1996 285.246 44.8263V46.0208H300.694V44.7675C297.538 44.1996 296.401 42.8875 296.401 39.48V31.2942C296.401 21.5417 299.106 16.4304 304.341 16.4304C307.438 16.4304 309.124 18.3104 309.124 22.5992V39.48C309.124 42.8875 308.124 44.1996 304.968 44.7675V46.0208H319.279V44.7675C316.123 44.1996 315.064 42.8875 315.064 39.48V31.3529C315.064 21.6004 317.828 16.4304 323.063 16.4304C326.337 16.4304 327.788 18.5063 327.788 22.5992V39.5388C327.788 42.9463 326.709 44.1996 323.573 44.7675V46.0208H338.198V44.7675C334.786 44.1996 333.728 42.8875 333.728 39.48L333.708 39.4996ZM284.54 30.3738C284.54 40.0675 278.678 46.5496 269.856 46.5496C261.034 46.5496 255.035 40.0675 255.035 30.3738C255.035 20.68 260.956 14.2567 269.778 14.2567C278.6 14.2567 284.52 20.68 284.52 30.3738H284.54ZM277.659 30.3738C277.659 20.4254 275.208 15.9604 269.837 15.9604C264.465 15.9604 261.897 20.4254 261.897 30.3738C261.897 40.3221 264.485 44.8458 269.837 44.8458C275.189 44.8458 277.659 40.3809 277.659 30.3738ZM242.684 44.4738C237.077 44.4738 234.176 40.0088 234.176 30.1192C234.176 20.2296 236.96 15.8821 241.861 15.8821C244.762 15.8821 246.154 17.5271 246.154 20.9738C246.154 24.0679 247.291 25.6346 249.428 25.6346C251.389 25.6346 252.447 24.1854 252.389 21.855C252.271 16.8809 247.154 14.2371 241.41 14.2371C232.784 14.2371 227.216 20.2884 227.216 30.6088C227.216 40.9292 232.137 46.53 241.273 46.53C247.135 46.53 250.546 44.0821 252.996 38.9708L251.663 38.2854C249.644 42.4958 246.488 44.4542 242.645 44.4542L242.684 44.4738ZM196.104 30.3738C196.104 40.0675 190.242 46.5496 181.42 46.5496C172.598 46.5496 166.54 40.0675 166.54 30.3738C166.54 20.68 172.461 14.2567 181.361 14.2567C190.262 14.2567 196.104 20.68 196.104 30.3738ZM189.164 30.3738C189.164 20.4254 186.713 15.9604 181.342 15.9604C175.97 15.9604 173.461 20.4254 173.461 30.3738C173.461 40.3221 175.99 44.8458 181.342 44.8458C186.694 44.8458 189.164 40.3809 189.164 30.3738ZM222.315 17.6446C222.315 15.6275 220.923 14.2371 218.414 14.2371C214.042 14.2371 210.396 18.4279 208.553 23.5H208.004L208.122 14.8833H197.221V16.0779C201.378 16.8417 202.397 17.8404 202.397 20.9934V39.4408C202.397 42.77 201.005 44.2192 197.104 44.8458V46.0404H214.179V44.7871C209.572 44.2192 208.259 43.0246 208.259 39.6171V31.3725C208.259 25.7129 211.533 18.6629 215.003 18.6629C217.081 18.6629 217.336 21.1108 219.473 21.1108C221.237 21.1108 222.315 19.4071 222.315 17.6446ZM221.688 39.8129C219.806 39.8129 218.355 41.2621 218.355 43.1421C218.355 45.0221 219.806 46.4713 221.688 46.4713C223.57 46.4713 225.021 45.0221 225.021 43.1421C225.021 41.2621 223.57 39.8129 221.688 39.8129ZM341.55 13.7084C340.248 13.7083 339 14.2235 338.077 15.1411C337.155 16.0587 336.634 17.3039 336.629 18.6042C336.629 21.3067 338.845 23.4608 341.55 23.4608C344.255 23.4608 346.392 21.3067 346.392 18.6042C346.392 15.9017 344.236 13.7084 341.55 13.7084ZM341.55 22.5992C339.237 22.5992 337.551 20.7975 337.551 18.6042C337.551 16.4109 339.237 14.5504 341.55 14.5504C343.726 14.5504 345.49 16.3913 345.49 18.6042C345.49 20.8171 343.726 22.5992 341.55 22.5992Z" fill="black"/>
<path d="M343.608 17.7033C343.608 16.8025 342.883 16.0779 341.668 16.0779H339.688V20.915H340.687V19.3092H341.57L342.511 20.915H343.608L342.491 19.1525C343.236 18.9567 343.608 18.33 343.608 17.7033ZM341.628 18.5846H340.687V16.92H341.628C342.138 16.92 342.609 17.1746 342.609 17.7033C342.609 18.2321 342.197 18.5846 341.628 18.5846Z" fill="black"/>
<path d="M44.9728 26.2221L23.2902 3.995L1.54875 26.2221H8.15547V46.0404H38.268V26.2221H44.9728Z" fill="#D72228"/>
<path d="M23.2314 26.3983H23.6234C25.1722 22.56 27.9168 19.8575 30.2694 19.8575C31.9358 19.8575 33.2493 21.0521 33.2493 22.8929C33.2493 24.4988 32.3278 25.6346 31.0143 25.6346C30.1517 25.6346 29.7597 25.1842 29.348 24.7729C28.8971 24.3225 28.5442 23.7938 27.858 23.7938C25.7995 23.7938 23.447 28.3763 23.447 31.9796V35.4654C23.447 38.5596 24.2508 39.245 27.7404 39.715V40.8117H14.723V39.8325C17.8793 39.4408 18.9184 38.5204 18.9184 35.485V24.9883C18.9184 22.7558 17.9381 21.8942 15.0171 21.385V20.3667H23.3882L23.2117 26.3788L23.2314 26.3983Z" fill="white"/>
</g>
</svg>
