<svg xmlns="http://www.w3.org/2000/svg" version="1.1" xmlns:xlink="http://www.w3.org/1999/xlink" width="512" height="512" x="0" y="0" viewBox="0 0 512 512" style="enable-background:new 0 0 512 512" xml:space="preserve" class=""><g><path d="M476.2 239.8H475c-10.7.3-19.5 8.9-19.8 19.8-2.9 92.9-67.6 172-157.4 192.5-77.4 17.6-156.7-12.2-204.1-73.7l59.1 12.4c11 2.3 21.9-4.8 24.2-15.8 2.3-11-4.7-21.9-15.8-24.2L57.3 329c-16.5-2.5-23.6 10.3-24.2 15.9L11.5 449.5c-2.3 11 4.8 21.8 15.9 24.1 11 2.3 21.8-4.8 24.1-15.9l11-53.1c57.2 73 151.9 108.3 244.5 87.2 107.9-24.6 185.6-119.6 189.1-231 .2-11.2-8.6-20.6-19.9-21zM485.3 41.4c-11-2.6-22 4.2-24.5 15.2l-12.4 52.8c-55.2-74.5-148.9-112.3-242-93.7C97.8 37.4 17.5 130.3 11.1 241.6c-.7 11.3 7.9 20.9 19.2 21.6h1.2c10.7 0 19.7-8.4 20.4-19.2C57.2 151.2 124 73.8 214.3 55.8c77.9-15.6 156.3 16.4 202.1 79.2l-58.7-14c-11-2.6-22 4.2-24.6 15.1-2.6 11 4.2 22 15.1 24.6l103.3 24.6c16.4 3 23.9-9.7 24.6-15.2L500.5 66c2.6-11-4.2-22-15.2-24.6z" fill="#ff5d21" opacity="1" data-original="#000000" class=""></path></g></svg>