<svg xmlns="http://www.w3.org/2000/svg" version="1.1" xmlns:xlink="http://www.w3.org/1999/xlink" width="512" height="512" x="0" y="0" viewBox="0 0 60 56" style="enable-background:new 0 0 512 512" xml:space="preserve" class=""><g><g fill="#000" fill-rule="nonzero"><path d="M36.173 36.823C48.92 21.4 43.735 27.669 59.083 9.1a4 4 0 0 0-.535-5.632L55.464.917a4 4 0 0 0-5.631.535L26.9 29.205a.948.948 0 0 0-.177.318l-3.6 10.742A1.982 1.982 0 0 0 23.352 42H20a1 1 0 0 0 0 2h20a1 1 0 0 0 0-2H27.144l8.729-4.918c.11-.073.212-.16.3-.259zm-6.285 1.335L26.8 35.6l1.361-4.064 5.464 4.514zm-3.772-.523 1.906 1.575-3 1.69zM50.535 16.3l-6.167-5.095 1.91-2.313 6.167 5.1zm.839-13.574a2 2 0 0 1 2.816-.269l3.084 2.548a2 2 0 0 1 .268 2.816l-3.822 4.626-6.167-5.095zm-8.28 10.02 6.167 5.1L35.248 34.8l-6.167-5.095z" fill="#ff5d21" opacity="1" data-original="#000000"></path><path d="M2 19h12v29a8.009 8.009 0 0 0 8 8h30a7.963 7.963 0 0 0 7.9-6.7 1.962 1.962 0 0 0-.446-1.584A2.012 2.012 0 0 0 57.913 47H46V30a1 1 0 0 0-2 0v17H29.932a1.991 1.991 0 0 0-1.977 1.746A6 6 0 0 1 16 48V13a7.976 7.976 0 0 0-2.726-6H38a5.908 5.908 0 0 1 2.942.767 1 1 0 1 0 1-1.734A7.912 7.912 0 0 0 38 5H8a8.009 8.009 0 0 0-8 8v4a2 2 0 0 0 2 2zm27.932 30 27.989-.025A5.969 5.969 0 0 1 52 54H27.291a7.932 7.932 0 0 0 2.641-5zM8 7a6.006 6.006 0 0 1 6 6v4H2v-4a6.006 6.006 0 0 1 6-6z" fill="#ff5d21" opacity="1" data-original="#000000"></path><path d="M20 12h18a1 1 0 0 0 0-2H20a1 1 0 0 0 0 2zM20 17h13.92a1 1 0 0 0 0-2H20a1 1 0 0 0 0 2zM20 22h9.79a1 1 0 0 0 0-2H20a1 1 0 0 0 0 2zM20 27h5.66a1 1 0 0 0 0-2H20a1 1 0 0 0 0 2z" fill="#ff5d21" opacity="1" data-original="#000000"></path></g></g></svg>