<svg width="316" height="69" viewBox="0 0 316 69" fill="none" xmlns="http://www.w3.org/2000/svg">
<mask id="mask0_1_10" style="mask-type:luminance" maskUnits="userSpaceOnUse" x="0" y="0" width="316" height="69">
<path d="M0.590286 0H315.41V68.7422H0.590286V0Z" fill="white"/>
</mask>
<g mask="url(#mask0_1_10)">
<path d="M41.4882 21.038C42.3468 20.8461 43.2455 21.1783 43.7635 21.8887L46.9403 26.208C47.1136 26.4431 47.2388 26.7103 47.3086 26.994C47.3784 27.2777 47.3915 27.5725 47.3471 27.8613C47.3027 28.1501 47.2016 28.4273 47.0498 28.6769C46.8979 28.9265 46.6983 29.1436 46.4623 29.3157C39.9456 34.1105 32.885 40.4863 28.8239 45.1436C28.7266 45.2524 28.7981 45.2696 28.8639 45.2438C36.0905 42.5658 52.7015 38.6131 60.7008 37.5046V27.5198L60.7093 27.5255C60.7093 26.2194 60.1083 24.9649 59.078 24.1457L58.5485 23.7218L33.343 3.78656C32.5824 3.18698 31.6423 2.86096 30.6741 2.86096C29.7059 2.86096 28.7659 3.18698 28.0053 3.78656C28.0053 3.78656 9.62847 18.294 2.22162 24.1457C1.19131 24.9649 0.590286 26.208 0.590286 27.5227V35.6572C18.4921 27.0386 36.5741 22.1465 41.4882 21.038Z" fill="#0041D9"/>
<path d="M17.519 59.6768C17.0851 59.8602 16.604 59.8996 16.1461 59.7893C15.6882 59.6789 15.2777 59.4247 14.9747 59.0639C13.7438 57.5839 12.5302 56.0896 11.3342 54.5813C11.0118 54.1751 10.8411 53.669 10.8515 53.1503C10.862 52.6316 11.0529 52.1329 11.3915 51.74C14.8859 47.7014 25.3351 36.3818 30.1375 33.1853C30.2434 33.1166 30.2148 33.0478 30.0975 33.0765C24.2103 34.6661 7.13853 40.999 0.590286 44.2127V63.4605C0.590286 65.8436 2.51355 67.7684 4.89759 67.7684H56.3992C58.7746 67.7684 60.7065 65.8436 60.7065 63.4663V47.9362C51.9345 49.1765 29.0357 54.8534 17.519 59.6854V59.6768Z" fill="#0041D9"/>
<path d="M142.983 26.5631H131.014V67.7741H142.983V26.5631ZM77.555 67.7741V61.023L105.345 22.1264V21.3216H78.033V10.5519H123.224V17.3001L95.9147 56.2025V57.0045H124.025V67.7741H77.555ZM151.595 67.7741V8.54123H163.524V67.7741H151.595ZM172.161 67.7741V8.54123H184.09V67.7741H172.161ZM189.436 47.1915C189.436 33.9529 198.517 25.3716 212.266 25.3716C226.012 25.3716 235.094 33.9529 235.099 47.1915C235.099 60.5046 225.935 69.0115 212.269 69.0115C198.603 69.0115 189.436 60.4301 189.436 47.1915ZM223.119 47.1915C223.119 40.3689 218.614 35.5598 212.266 35.5598C205.918 35.5598 201.333 40.3717 201.333 47.1944C201.333 54.0142 205.838 58.9092 212.269 58.9092C218.703 58.9092 223.122 54.0113 223.122 47.1944L223.119 47.1915ZM247.46 67.7741L235.096 26.609H247.217L255.565 56.1166H256.367L263.665 26.609H275.548L283.413 56.1108H284.214L292.396 26.6004H304.196L291.758 67.7655H276.266L270.004 40.515H269.203L263.021 67.7712H247.452H247.457L247.46 67.7741ZM310.066 23.2435H309.551V19.5343H311.291C312.164 19.5343 312.731 19.9782 312.731 20.6599C312.731 21.29 312.199 21.7311 311.454 21.7655H311.386L312.837 23.2435H312.184L310.799 21.7913H310.064L310.066 23.2435ZM310.066 19.9582V21.3731H311.291C311.864 21.3731 312.216 21.1039 312.216 20.6628C312.216 20.2245 311.864 19.961 311.291 19.961L310.066 19.9582Z" fill="#111116"/>
<path d="M310.994 25.8156C309.967 25.8222 308.969 25.4698 308.174 24.8194C307.379 24.1689 306.836 23.261 306.638 22.2524C306.495 21.5379 306.531 20.7991 306.742 20.1019C306.954 19.4047 307.335 18.7708 307.851 18.2568C308.364 17.7399 308.997 17.3583 309.693 17.1464C310.389 16.9344 311.127 16.8987 311.841 17.0424C312.701 17.2107 313.492 17.632 314.112 18.2524C314.732 18.8728 315.153 19.6642 315.321 20.5253C315.466 21.2393 315.431 21.9782 315.219 22.6753C315.007 23.3724 314.625 24.0057 314.107 24.5181C313.699 24.9307 313.212 25.2578 312.676 25.4806C312.14 25.7033 311.565 25.8172 310.985 25.8156H310.994ZM310.982 17.5837C310.483 17.5825 309.988 17.6803 309.527 17.8716C309.066 18.0628 308.647 18.3437 308.295 18.6979C307.851 19.1402 307.524 19.6855 307.342 20.2853C307.16 20.8851 307.13 21.5206 307.253 22.135C307.388 22.8104 307.704 23.4364 308.167 23.9461C308.63 24.4559 309.223 24.8304 309.882 25.0298C310.541 25.2291 311.241 25.2457 311.909 25.0779C312.576 24.9101 313.186 24.5642 313.672 24.077C314.205 23.5443 314.568 22.8653 314.714 22.1262C314.861 21.3871 314.785 20.621 314.497 19.925C314.208 19.229 313.719 18.6345 313.093 18.2166C312.466 17.7988 311.729 17.5766 310.976 17.578L310.982 17.5837ZM130.591 14.9028C130.591 11.3224 133.258 8.66727 137.002 8.66727C140.742 8.66727 143.407 11.3196 143.407 14.9028C143.407 18.4888 140.742 21.1383 136.999 21.1383C133.258 21.1383 130.594 18.5576 130.591 14.9028Z" fill="#111116"/>
</g>
</svg>
