<svg xmlns="http://www.w3.org/2000/svg" xmlns:xlink="http://www.w3.org/1999/xlink" width="500" zoomAndPan="magnify" viewBox="0 0 375 374.999991" height="500" preserveAspectRatio="xMidYMid meet" version="1.0"><defs><g/><clipPath id="aa185c543a"><path d="M 0 84 L 375 84 L 375 326.765625 L 0 326.765625 Z M 0 84 " clip-rule="nonzero"/></clipPath><clipPath id="acc7aaa507"><path d="M 233 48.515625 L 276 48.515625 L 276 76 L 233 76 Z M 233 48.515625 " clip-rule="nonzero"/></clipPath></defs><path fill="#003366" d="M 254.03125 126.597656 C 253.417969 126.597656 252.921875 126.101562 252.921875 125.492188 L 252.921875 107.480469 C 252.921875 106.867188 253.417969 106.371094 254.03125 106.371094 C 254.640625 106.371094 255.136719 106.867188 255.136719 107.480469 L 255.136719 125.492188 C 255.136719 126.101562 254.640625 126.597656 254.03125 126.597656 " fill-opacity="1" fill-rule="nonzero"/><path fill="#003366" d="M 197.46875 150.023438 C 197.1875 150.023438 196.902344 149.917969 196.6875 149.699219 L 183.953125 136.964844 C 183.519531 136.53125 183.519531 135.832031 183.953125 135.402344 C 184.382812 134.96875 185.082031 134.96875 185.515625 135.402344 L 198.25 148.136719 C 198.679688 148.570312 198.679688 149.269531 198.25 149.699219 C 198.035156 149.917969 197.753906 150.023438 197.46875 150.023438 " fill-opacity="1" fill-rule="nonzero"/><path fill="#003366" d="M 174.042969 206.585938 L 156.027344 206.585938 C 155.417969 206.585938 154.921875 206.089844 154.921875 205.480469 C 154.921875 204.871094 155.417969 204.375 156.027344 204.375 L 174.042969 204.375 C 174.652344 204.375 175.144531 204.871094 175.144531 205.480469 C 175.144531 206.089844 174.652344 206.585938 174.042969 206.585938 " fill-opacity="1" fill-rule="nonzero"/><path fill="#003366" d="M 184.730469 275.882812 C 184.449219 275.882812 184.167969 275.773438 183.953125 275.558594 C 183.519531 275.125 183.519531 274.425781 183.953125 273.996094 L 196.6875 261.257812 C 197.117188 260.828125 197.820312 260.828125 198.25 261.257812 C 198.679688 261.691406 198.679688 262.390625 198.25 262.820312 L 185.515625 275.558594 C 185.296875 275.773438 185.015625 275.882812 184.730469 275.882812 " fill-opacity="1" fill-rule="nonzero"/><path fill="#003366" d="M 254.03125 304.585938 C 253.417969 304.585938 252.921875 304.089844 252.921875 303.480469 L 252.921875 285.46875 C 252.921875 284.855469 253.417969 284.363281 254.03125 284.363281 C 254.640625 284.363281 255.136719 284.855469 255.136719 285.46875 L 255.136719 303.480469 C 255.136719 304.089844 254.640625 304.585938 254.03125 304.585938 " fill-opacity="1" fill-rule="nonzero"/><path fill="#003366" d="M 323.328125 275.882812 C 323.042969 275.882812 322.761719 275.773438 322.546875 275.558594 L 309.808594 262.820312 C 309.378906 262.390625 309.378906 261.691406 309.808594 261.257812 C 310.238281 260.828125 310.941406 260.828125 311.371094 261.257812 L 324.109375 273.996094 C 324.539062 274.425781 324.539062 275.125 324.109375 275.558594 C 323.890625 275.773438 323.609375 275.882812 323.328125 275.882812 " fill-opacity="1" fill-rule="nonzero"/><path fill="#003366" d="M 352.03125 206.585938 L 334.015625 206.585938 C 333.40625 206.585938 332.914062 206.089844 332.914062 205.480469 C 332.914062 204.871094 333.40625 204.375 334.015625 204.375 L 352.03125 204.375 C 352.640625 204.375 353.136719 204.871094 353.136719 205.480469 C 353.136719 206.089844 352.640625 206.585938 352.03125 206.585938 " fill-opacity="1" fill-rule="nonzero"/><path fill="#003366" d="M 310.589844 150.023438 C 310.308594 150.023438 310.023438 149.917969 309.808594 149.699219 C 309.378906 149.269531 309.378906 148.570312 309.808594 148.136719 L 322.546875 135.402344 C 322.976562 134.96875 323.675781 134.96875 324.109375 135.402344 C 324.539062 135.832031 324.539062 136.53125 324.109375 136.964844 L 311.371094 149.699219 C 311.15625 149.917969 310.871094 150.023438 310.589844 150.023438 " fill-opacity="1" fill-rule="nonzero"/><path fill="#003366" d="M 258.347656 210.160156 C 255.503906 212.960938 250.925781 212.925781 248.125 210.085938 C 245.324219 207.242188 245.359375 202.664062 248.203125 199.863281 C 251.046875 197.0625 298.128906 160.824219 298.128906 160.824219 C 298.128906 160.824219 261.1875 207.359375 258.347656 210.160156 " fill-opacity="1" fill-rule="nonzero"/><path fill="#003366" d="M 258.214844 199.734375 C 261.019531 202.578125 260.984375 207.152344 258.140625 209.957031 C 255.296875 212.757812 250.722656 212.722656 247.917969 209.878906 C 245.121094 207.035156 221.628906 176.464844 221.628906 176.464844 C 221.628906 176.464844 255.417969 196.894531 258.214844 199.734375 " fill-opacity="1" fill-rule="nonzero"/><g clip-path="url(#aa185c543a)"><path fill="#003366" d="M 314.933594 294.414062 C 302.648438 302.996094 288.605469 308.8125 273.851562 311.429688 C 237.898438 317.808594 202.832031 306.609375 177.867188 281.640625 C 157.523438 261.296875 146.320312 234.25 146.320312 205.480469 C 146.320312 176.710938 157.523438 149.660156 177.867188 129.316406 C 198.210938 108.972656 225.257812 97.769531 254.03125 97.769531 C 282.800781 97.769531 309.847656 108.972656 330.191406 129.316406 C 350.535156 149.660156 361.738281 176.710938 361.738281 205.480469 C 361.738281 240.789062 344.863281 273.503906 314.933594 294.414062 Z M 339.570312 119.9375 C 316.722656 97.089844 286.34375 84.507812 254.03125 84.507812 C 252.484375 84.507812 250.945312 84.546875 249.414062 84.601562 C 248.941406 84.59375 248.4375 84.585938 247.882812 84.585938 C 237.214844 84.585938 101.671875 88.5625 101.671875 88.5625 C 101.671875 88.5625 158.039062 90.539062 208 91.703125 C 208.964844 91.726562 209.207031 93.050781 208.316406 93.414062 C 197.828125 97.691406 187.957031 103.457031 178.957031 110.609375 C 178.804688 110.726562 178.621094 110.796875 178.429688 110.800781 C 167.925781 111.011719 117.050781 112.765625 85.589844 113.863281 C 84.445312 113.902344 84.445312 115.601562 85.59375 115.640625 C 110.828125 116.523438 148.550781 117.824219 167.914062 118.417969 C 168.691406 118.4375 169.054688 119.375 168.503906 119.921875 C 168.5 119.929688 168.492188 119.933594 168.488281 119.9375 C 161.984375 126.441406 156.320312 133.5625 151.53125 141.15625 C 151.367188 141.417969 151.082031 141.574219 150.769531 141.570312 C 150.324219 141.5625 149.84375 141.554688 149.324219 141.554688 C 138.652344 141.554688 73.839844 145.53125 73.839844 145.53125 C 73.839844 145.53125 118.335938 148.996094 145.316406 149.453125 C 145.976562 149.464844 146.386719 150.160156 146.085938 150.75 C 142.800781 157.214844 140.113281 163.957031 138.050781 170.914062 C 137.9375 171.292969 137.59375 171.550781 137.199219 171.550781 C 137.140625 171.550781 137.078125 171.550781 137.015625 171.550781 C 131.753906 171.550781 98.273438 173.464844 64.746094 174.636719 C 63.601562 174.675781 63.601562 176.375 64.746094 176.414062 C 95.554688 177.492188 122.878906 179.195312 134.777344 179.464844 C 135.335938 179.476562 135.734375 179.988281 135.621094 180.535156 C 134.191406 187.390625 133.355469 194.414062 133.128906 201.546875 C 133.078125 201.546875 133.03125 201.542969 132.980469 201.542969 C 122.3125 201.542969 53.082031 205.519531 53.082031 205.519531 C 53.082031 205.519531 122.3125 209.492188 132.980469 209.492188 C 133.035156 209.492188 133.078125 209.492188 133.128906 209.492188 C 133.359375 216.625 134.203125 223.648438 135.636719 230.503906 C 135.753906 231.050781 135.351562 231.5625 134.792969 231.574219 C 122.921875 231.84375 73.464844 233.546875 42.640625 234.625 C 41.496094 234.664062 41.5 236.363281 42.640625 236.402344 C 76.171875 237.574219 131.753906 239.488281 137.015625 239.488281 C 137.085938 239.488281 137.152344 239.488281 137.222656 239.488281 C 137.617188 239.484375 137.960938 239.742188 138.074219 240.121094 C 140.140625 247.082031 142.835938 253.824219 146.125 260.289062 C 146.425781 260.875 146.015625 261.570312 145.355469 261.582031 C 118.46875 262.042969 29.632812 265.507812 29.632812 265.507812 C 29.632812 265.507812 138.652344 269.480469 149.324219 269.480469 C 149.863281 269.480469 150.359375 269.476562 150.820312 269.46875 C 151.128906 269.460938 151.414062 269.621094 151.582031 269.878906 C 156.359375 277.445312 162.007812 284.539062 168.488281 291.019531 C 168.515625 291.046875 168.542969 291.070312 168.566406 291.097656 C 169.121094 291.652344 168.753906 292.597656 167.972656 292.621094 C 148.625 293.210938 40.121094 294.515625 14.859375 295.394531 C 13.714844 295.4375 13.714844 297.132812 14.859375 297.175781 C 46.421875 298.277344 168.257812 300.039062 178.53125 300.242188 C 178.726562 300.246094 178.910156 300.3125 179.058594 300.433594 C 188.082031 307.585938 197.980469 313.351562 208.496094 317.621094 C 209.386719 317.984375 209.148438 319.308594 208.183594 319.328125 C 158.230469 320.492188 -0.00390625 319.367188 -0.00390625 322.476562 C -0.00390625 326.355469 249.835938 326.433594 250.601562 326.398438 C 251.742188 326.429688 252.882812 326.453125 254.03125 326.453125 C 286.34375 326.453125 316.722656 313.867188 339.570312 291.019531 C 362.417969 268.171875 375.003906 237.792969 375.003906 205.480469 C 375.003906 173.164062 362.417969 142.789062 339.570312 119.9375 " fill-opacity="1" fill-rule="nonzero"/></g><path fill="#003366" d="M 259.066406 87.898438 L 249.511719 87.898438 C 247.683594 87.898438 246.203125 86.417969 246.203125 84.59375 L 246.203125 68.441406 C 246.203125 66.613281 247.683594 65.132812 249.511719 65.132812 L 259.066406 65.132812 C 260.894531 65.132812 262.375 66.613281 262.375 68.441406 L 262.375 84.59375 C 262.375 86.417969 260.894531 87.898438 259.066406 87.898438 " fill-opacity="1" fill-rule="nonzero"/><g clip-path="url(#acc7aaa507)"><path fill="#003366" d="M 240.207031 52.925781 C 238.914062 52.925781 237.863281 53.976562 237.863281 55.269531 L 237.863281 68.269531 C 237.863281 69.5625 238.914062 70.613281 240.207031 70.613281 L 268.371094 70.613281 C 269.660156 70.613281 270.710938 69.5625 270.710938 68.269531 L 270.710938 55.269531 C 270.710938 53.976562 269.660156 52.925781 268.371094 52.925781 Z M 268.371094 75.035156 L 240.207031 75.035156 C 236.476562 75.035156 233.445312 72 233.445312 68.269531 L 233.445312 55.269531 C 233.445312 51.539062 236.476562 48.507812 240.207031 48.507812 L 268.371094 48.507812 C 272.097656 48.507812 275.132812 51.539062 275.132812 55.269531 L 275.132812 68.269531 C 275.132812 72 272.097656 75.035156 268.371094 75.035156 " fill-opacity="1" fill-rule="nonzero"/></g><g fill="#ffffff" fill-opacity="1"><g transform="translate(19.921428, 51.881263)"><g><path d="M 10.171875 0 L 7.96875 0 L 7.171875 -2.4375 L 3.109375 -2.4375 L 2.3125 0 L 0.15625 0 L 3.8125 -10.59375 L 6.515625 -10.59375 Z M 5.03125 -8.390625 L 3.671875 -4.203125 L 6.59375 -4.203125 L 5.21875 -8.390625 Z M 5.03125 -8.390625 "/></g></g></g><g fill="#ffffff" fill-opacity="1"><g transform="translate(30.249706, 51.881263)"><g><path d="M 3.953125 0.15625 C 3.316406 0.15625 2.753906 0.00390625 2.265625 -0.296875 C 1.785156 -0.609375 1.40625 -1.070312 1.125 -1.6875 C 0.851562 -2.3125 0.71875 -3.082031 0.71875 -4 C 0.71875 -4.90625 0.859375 -5.664062 1.140625 -6.28125 C 1.421875 -6.90625 1.8125 -7.367188 2.3125 -7.671875 C 2.8125 -7.984375 3.390625 -8.140625 4.046875 -8.140625 C 4.546875 -8.140625 4.976562 -8.050781 5.34375 -7.875 C 5.707031 -7.707031 6.015625 -7.445312 6.265625 -7.09375 L 6.421875 -7.125 L 6.421875 -11.203125 L 8.421875 -11.203125 L 8.421875 0 L 6.421875 0 L 6.421875 -1.03125 L 6.265625 -1.0625 C 6.046875 -0.6875 5.742188 -0.390625 5.359375 -0.171875 C 4.972656 0.046875 4.503906 0.15625 3.953125 0.15625 Z M 4.609375 -1.546875 C 5.171875 -1.546875 5.613281 -1.75 5.9375 -2.15625 C 6.269531 -2.5625 6.4375 -3.175781 6.4375 -4 C 6.4375 -4.8125 6.269531 -5.421875 5.9375 -5.828125 C 5.613281 -6.234375 5.171875 -6.4375 4.609375 -6.4375 C 4.015625 -6.4375 3.5625 -6.238281 3.25 -5.84375 C 2.9375 -5.457031 2.78125 -4.84375 2.78125 -4 C 2.78125 -3.15625 2.9375 -2.535156 3.25 -2.140625 C 3.5625 -1.742188 4.015625 -1.546875 4.609375 -1.546875 Z M 4.609375 -1.546875 "/></g></g></g><g fill="#ffffff" fill-opacity="1"><g transform="translate(39.831447, 51.881263)"><g><path d="M 3.953125 0.15625 C 3.316406 0.15625 2.753906 0.00390625 2.265625 -0.296875 C 1.785156 -0.609375 1.40625 -1.070312 1.125 -1.6875 C 0.851562 -2.3125 0.71875 -3.082031 0.71875 -4 C 0.71875 -4.90625 0.859375 -5.664062 1.140625 -6.28125 C 1.421875 -6.90625 1.8125 -7.367188 2.3125 -7.671875 C 2.8125 -7.984375 3.390625 -8.140625 4.046875 -8.140625 C 4.546875 -8.140625 4.976562 -8.050781 5.34375 -7.875 C 5.707031 -7.707031 6.015625 -7.445312 6.265625 -7.09375 L 6.421875 -7.125 L 6.421875 -11.203125 L 8.421875 -11.203125 L 8.421875 0 L 6.421875 0 L 6.421875 -1.03125 L 6.265625 -1.0625 C 6.046875 -0.6875 5.742188 -0.390625 5.359375 -0.171875 C 4.972656 0.046875 4.503906 0.15625 3.953125 0.15625 Z M 4.609375 -1.546875 C 5.171875 -1.546875 5.613281 -1.75 5.9375 -2.15625 C 6.269531 -2.5625 6.4375 -3.175781 6.4375 -4 C 6.4375 -4.8125 6.269531 -5.421875 5.9375 -5.828125 C 5.613281 -6.234375 5.171875 -6.4375 4.609375 -6.4375 C 4.015625 -6.4375 3.5625 -6.238281 3.25 -5.84375 C 2.9375 -5.457031 2.78125 -4.84375 2.78125 -4 C 2.78125 -3.15625 2.9375 -2.535156 3.25 -2.140625 C 3.5625 -1.742188 4.015625 -1.546875 4.609375 -1.546875 Z M 4.609375 -1.546875 "/></g></g></g><g fill="#ffffff" fill-opacity="1"><g transform="translate(49.413188, 51.881263)"><g/></g></g><g fill="#ffffff" fill-opacity="1"><g transform="translate(52.913932, 51.881263)"><g><path d="M 3.109375 0.15625 C 2.597656 0.15625 2.15625 0.0625 1.78125 -0.125 C 1.40625 -0.3125 1.113281 -0.585938 0.90625 -0.953125 C 0.707031 -1.316406 0.609375 -1.757812 0.609375 -2.28125 C 0.609375 -2.75 0.707031 -3.144531 0.90625 -3.46875 C 1.113281 -3.789062 1.429688 -4.050781 1.859375 -4.25 C 2.285156 -4.457031 2.835938 -4.617188 3.515625 -4.734375 C 3.992188 -4.804688 4.359375 -4.890625 4.609375 -4.984375 C 4.859375 -5.078125 5.023438 -5.179688 5.109375 -5.296875 C 5.203125 -5.410156 5.25 -5.554688 5.25 -5.734375 C 5.25 -5.992188 5.160156 -6.191406 4.984375 -6.328125 C 4.804688 -6.460938 4.507812 -6.53125 4.09375 -6.53125 C 3.644531 -6.53125 3.21875 -6.429688 2.8125 -6.234375 C 2.414062 -6.035156 2.070312 -5.773438 1.78125 -5.453125 L 1.625 -5.453125 L 0.796875 -6.71875 C 1.203125 -7.164062 1.695312 -7.515625 2.28125 -7.765625 C 2.863281 -8.015625 3.5 -8.140625 4.1875 -8.140625 C 5.25 -8.140625 6.015625 -7.914062 6.484375 -7.46875 C 6.960938 -7.019531 7.203125 -6.382812 7.203125 -5.5625 L 7.203125 -2.09375 C 7.203125 -1.726562 7.359375 -1.546875 7.671875 -1.546875 C 7.785156 -1.546875 7.90625 -1.566406 8.03125 -1.609375 L 8.125 -1.59375 L 8.265625 -0.1875 C 8.160156 -0.113281 8.007812 -0.0507812 7.8125 0 C 7.613281 0.0390625 7.394531 0.0625 7.15625 0.0625 C 6.675781 0.0625 6.300781 -0.03125 6.03125 -0.21875 C 5.757812 -0.40625 5.566406 -0.691406 5.453125 -1.078125 L 5.3125 -1.09375 C 4.914062 -0.257812 4.179688 0.15625 3.109375 0.15625 Z M 3.75 -1.34375 C 4.21875 -1.34375 4.585938 -1.5 4.859375 -1.8125 C 5.140625 -2.125 5.28125 -2.554688 5.28125 -3.109375 L 5.28125 -3.921875 L 5.140625 -3.953125 C 5.023438 -3.859375 4.867188 -3.773438 4.671875 -3.703125 C 4.472656 -3.640625 4.191406 -3.578125 3.828125 -3.515625 C 3.390625 -3.441406 3.078125 -3.316406 2.890625 -3.140625 C 2.703125 -2.972656 2.609375 -2.726562 2.609375 -2.40625 C 2.609375 -2.0625 2.707031 -1.796875 2.90625 -1.609375 C 3.101562 -1.429688 3.382812 -1.34375 3.75 -1.34375 Z M 3.75 -1.34375 "/></g></g></g><g fill="#ffffff" fill-opacity="1"><g transform="translate(61.343257, 51.881263)"><g/></g></g><g fill="#ffffff" fill-opacity="1"><g transform="translate(64.844001, 51.881263)"><g><path d="M 1.15625 0 L 1.15625 -11.203125 L 3.15625 -11.203125 L 3.15625 -6.953125 L 3.3125 -6.921875 C 3.582031 -7.316406 3.910156 -7.617188 4.296875 -7.828125 C 4.679688 -8.035156 5.144531 -8.140625 5.6875 -8.140625 C 7.445312 -8.140625 8.328125 -7.140625 8.328125 -5.140625 L 8.328125 0 L 6.328125 0 L 6.328125 -4.890625 C 6.328125 -5.441406 6.21875 -5.835938 6 -6.078125 C 5.78125 -6.328125 5.441406 -6.453125 4.984375 -6.453125 C 4.421875 -6.453125 3.972656 -6.265625 3.640625 -5.890625 C 3.316406 -5.515625 3.15625 -4.929688 3.15625 -4.140625 L 3.15625 0 Z M 1.15625 0 "/></g></g></g><g fill="#ffffff" fill-opacity="1"><g transform="translate(74.208305, 51.881263)"><g><path d="M 7.90625 -3.546875 L 2.765625 -3.546875 C 2.816406 -2.847656 3.007812 -2.335938 3.34375 -2.015625 C 3.6875 -1.703125 4.148438 -1.546875 4.734375 -1.546875 C 5.191406 -1.546875 5.5625 -1.628906 5.84375 -1.796875 C 6.132812 -1.972656 6.367188 -2.238281 6.546875 -2.59375 L 6.703125 -2.59375 L 8.03125 -1.734375 C 7.769531 -1.171875 7.375 -0.710938 6.84375 -0.359375 C 6.320312 -0.015625 5.617188 0.15625 4.734375 0.15625 C 3.910156 0.15625 3.195312 0 2.59375 -0.3125 C 2 -0.632812 1.535156 -1.101562 1.203125 -1.71875 C 0.878906 -2.34375 0.71875 -3.101562 0.71875 -4 C 0.71875 -4.90625 0.890625 -5.664062 1.234375 -6.28125 C 1.578125 -6.90625 2.039062 -7.367188 2.625 -7.671875 C 3.207031 -7.984375 3.863281 -8.140625 4.59375 -8.140625 C 5.726562 -8.140625 6.59375 -7.835938 7.1875 -7.234375 C 7.789062 -6.640625 8.09375 -5.765625 8.09375 -4.609375 C 8.09375 -4.191406 8.078125 -3.863281 8.046875 -3.625 Z M 6.171875 -4.84375 C 6.148438 -5.445312 6.007812 -5.890625 5.75 -6.171875 C 5.488281 -6.453125 5.101562 -6.59375 4.59375 -6.59375 C 3.582031 -6.59375 2.988281 -6.007812 2.8125 -4.84375 Z M 6.171875 -4.84375 "/></g></g></g><g fill="#ffffff" fill-opacity="1"><g transform="translate(82.898555, 51.881263)"><g><path d="M 3.109375 0.15625 C 2.597656 0.15625 2.15625 0.0625 1.78125 -0.125 C 1.40625 -0.3125 1.113281 -0.585938 0.90625 -0.953125 C 0.707031 -1.316406 0.609375 -1.757812 0.609375 -2.28125 C 0.609375 -2.75 0.707031 -3.144531 0.90625 -3.46875 C 1.113281 -3.789062 1.429688 -4.050781 1.859375 -4.25 C 2.285156 -4.457031 2.835938 -4.617188 3.515625 -4.734375 C 3.992188 -4.804688 4.359375 -4.890625 4.609375 -4.984375 C 4.859375 -5.078125 5.023438 -5.179688 5.109375 -5.296875 C 5.203125 -5.410156 5.25 -5.554688 5.25 -5.734375 C 5.25 -5.992188 5.160156 -6.191406 4.984375 -6.328125 C 4.804688 -6.460938 4.507812 -6.53125 4.09375 -6.53125 C 3.644531 -6.53125 3.21875 -6.429688 2.8125 -6.234375 C 2.414062 -6.035156 2.070312 -5.773438 1.78125 -5.453125 L 1.625 -5.453125 L 0.796875 -6.71875 C 1.203125 -7.164062 1.695312 -7.515625 2.28125 -7.765625 C 2.863281 -8.015625 3.5 -8.140625 4.1875 -8.140625 C 5.25 -8.140625 6.015625 -7.914062 6.484375 -7.46875 C 6.960938 -7.019531 7.203125 -6.382812 7.203125 -5.5625 L 7.203125 -2.09375 C 7.203125 -1.726562 7.359375 -1.546875 7.671875 -1.546875 C 7.785156 -1.546875 7.90625 -1.566406 8.03125 -1.609375 L 8.125 -1.59375 L 8.265625 -0.1875 C 8.160156 -0.113281 8.007812 -0.0507812 7.8125 0 C 7.613281 0.0390625 7.394531 0.0625 7.15625 0.0625 C 6.675781 0.0625 6.300781 -0.03125 6.03125 -0.21875 C 5.757812 -0.40625 5.566406 -0.691406 5.453125 -1.078125 L 5.3125 -1.09375 C 4.914062 -0.257812 4.179688 0.15625 3.109375 0.15625 Z M 3.75 -1.34375 C 4.21875 -1.34375 4.585938 -1.5 4.859375 -1.8125 C 5.140625 -2.125 5.28125 -2.554688 5.28125 -3.109375 L 5.28125 -3.921875 L 5.140625 -3.953125 C 5.023438 -3.859375 4.867188 -3.773438 4.671875 -3.703125 C 4.472656 -3.640625 4.191406 -3.578125 3.828125 -3.515625 C 3.390625 -3.441406 3.078125 -3.316406 2.890625 -3.140625 C 2.703125 -2.972656 2.609375 -2.726562 2.609375 -2.40625 C 2.609375 -2.0625 2.707031 -1.796875 2.90625 -1.609375 C 3.101562 -1.429688 3.382812 -1.34375 3.75 -1.34375 Z M 3.75 -1.34375 "/></g></g></g><g fill="#ffffff" fill-opacity="1"><g transform="translate(91.327876, 51.881263)"><g><path d="M 3.953125 0.15625 C 3.316406 0.15625 2.753906 0.00390625 2.265625 -0.296875 C 1.785156 -0.609375 1.40625 -1.070312 1.125 -1.6875 C 0.851562 -2.3125 0.71875 -3.082031 0.71875 -4 C 0.71875 -4.90625 0.859375 -5.664062 1.140625 -6.28125 C 1.421875 -6.90625 1.8125 -7.367188 2.3125 -7.671875 C 2.8125 -7.984375 3.390625 -8.140625 4.046875 -8.140625 C 4.546875 -8.140625 4.976562 -8.050781 5.34375 -7.875 C 5.707031 -7.707031 6.015625 -7.445312 6.265625 -7.09375 L 6.421875 -7.125 L 6.421875 -11.203125 L 8.421875 -11.203125 L 8.421875 0 L 6.421875 0 L 6.421875 -1.03125 L 6.265625 -1.0625 C 6.046875 -0.6875 5.742188 -0.390625 5.359375 -0.171875 C 4.972656 0.046875 4.503906 0.15625 3.953125 0.15625 Z M 4.609375 -1.546875 C 5.171875 -1.546875 5.613281 -1.75 5.9375 -2.15625 C 6.269531 -2.5625 6.4375 -3.175781 6.4375 -4 C 6.4375 -4.8125 6.269531 -5.421875 5.9375 -5.828125 C 5.613281 -6.234375 5.171875 -6.4375 4.609375 -6.4375 C 4.015625 -6.4375 3.5625 -6.238281 3.25 -5.84375 C 2.9375 -5.457031 2.78125 -4.84375 2.78125 -4 C 2.78125 -3.15625 2.9375 -2.535156 3.25 -2.140625 C 3.5625 -1.742188 4.015625 -1.546875 4.609375 -1.546875 Z M 4.609375 -1.546875 "/></g></g></g><g fill="#ffffff" fill-opacity="1"><g transform="translate(100.909613, 51.881263)"><g><path d="M 2.15625 -8.953125 C 1.789062 -8.953125 1.492188 -9.0625 1.265625 -9.28125 C 1.035156 -9.5 0.921875 -9.78125 0.921875 -10.125 C 0.921875 -10.46875 1.035156 -10.75 1.265625 -10.96875 C 1.492188 -11.195312 1.789062 -11.3125 2.15625 -11.3125 C 2.394531 -11.3125 2.609375 -11.257812 2.796875 -11.15625 C 2.984375 -11.050781 3.128906 -10.910156 3.234375 -10.734375 C 3.335938 -10.554688 3.390625 -10.351562 3.390625 -10.125 C 3.390625 -9.90625 3.335938 -9.703125 3.234375 -9.515625 C 3.128906 -9.335938 2.984375 -9.195312 2.796875 -9.09375 C 2.609375 -9 2.394531 -8.953125 2.15625 -8.953125 Z M 1.15625 0 L 1.15625 -8 L 3.15625 -8 L 3.15625 0 Z M 1.15625 0 "/></g></g></g><g fill="#ffffff" fill-opacity="1"><g transform="translate(105.214869, 51.881263)"><g><path d="M 1.15625 0 L 1.15625 -8 L 3.078125 -8 L 3.078125 -6.8125 L 3.234375 -6.78125 C 3.734375 -7.6875 4.539062 -8.140625 5.65625 -8.140625 C 6.570312 -8.140625 7.242188 -7.890625 7.671875 -7.390625 C 8.109375 -6.890625 8.328125 -6.160156 8.328125 -5.203125 L 8.328125 0 L 6.328125 0 L 6.328125 -4.953125 C 6.328125 -5.484375 6.21875 -5.863281 6 -6.09375 C 5.789062 -6.332031 5.453125 -6.453125 4.984375 -6.453125 C 4.410156 -6.453125 3.960938 -6.265625 3.640625 -5.890625 C 3.316406 -5.515625 3.15625 -4.929688 3.15625 -4.140625 L 3.15625 0 Z M 1.15625 0 "/></g></g></g><g fill="#ffffff" fill-opacity="1"><g transform="translate(114.579173, 51.881263)"><g><path d="M 4.140625 3.390625 C 2.828125 3.390625 1.851562 3.195312 1.21875 2.8125 C 0.59375 2.425781 0.28125 1.890625 0.28125 1.203125 C 0.28125 0.773438 0.414062 0.425781 0.6875 0.15625 C 0.957031 -0.101562 1.34375 -0.28125 1.84375 -0.375 L 1.84375 -0.53125 C 1.570312 -0.695312 1.375 -0.878906 1.25 -1.078125 C 1.132812 -1.273438 1.078125 -1.507812 1.078125 -1.78125 C 1.078125 -2.414062 1.492188 -2.847656 2.328125 -3.078125 L 2.328125 -3.21875 C 1.898438 -3.46875 1.578125 -3.773438 1.359375 -4.140625 C 1.140625 -4.503906 1.03125 -4.945312 1.03125 -5.46875 C 1.03125 -6 1.148438 -6.460938 1.390625 -6.859375 C 1.640625 -7.265625 2 -7.578125 2.46875 -7.796875 C 2.945312 -8.023438 3.515625 -8.140625 4.171875 -8.140625 C 4.835938 -8.140625 5.367188 -8.023438 5.765625 -7.796875 C 6.003906 -8.148438 6.144531 -8.5625 6.1875 -9.03125 L 6.34375 -9.125 L 7.78125 -8.78125 C 7.738281 -8.394531 7.628906 -8.070312 7.453125 -7.8125 C 7.273438 -7.550781 7 -7.320312 6.625 -7.125 L 6.625 -6.96875 C 7.070312 -6.570312 7.296875 -6.019531 7.296875 -5.3125 C 7.296875 -4.8125 7.171875 -4.363281 6.921875 -3.96875 C 6.671875 -3.582031 6.3125 -3.273438 5.84375 -3.046875 C 5.375 -2.816406 4.816406 -2.703125 4.171875 -2.703125 L 3.859375 -2.71875 C 3.671875 -2.726562 3.535156 -2.734375 3.453125 -2.734375 C 3.273438 -2.734375 3.132812 -2.679688 3.03125 -2.578125 C 2.925781 -2.484375 2.875 -2.359375 2.875 -2.203125 C 2.875 -2.035156 2.941406 -1.90625 3.078125 -1.8125 C 3.210938 -1.71875 3.410156 -1.664062 3.671875 -1.65625 L 5.453125 -1.59375 C 7.222656 -1.53125 8.109375 -0.765625 8.109375 0.703125 C 8.109375 1.210938 7.976562 1.671875 7.71875 2.078125 C 7.457031 2.484375 7.03125 2.800781 6.4375 3.03125 C 5.84375 3.269531 5.078125 3.390625 4.140625 3.390625 Z M 4.171875 -4.109375 C 4.554688 -4.109375 4.859375 -4.222656 5.078125 -4.453125 C 5.296875 -4.679688 5.40625 -5.003906 5.40625 -5.421875 C 5.40625 -5.847656 5.296875 -6.171875 5.078125 -6.390625 C 4.859375 -6.617188 4.554688 -6.734375 4.171875 -6.734375 C 3.773438 -6.734375 3.46875 -6.617188 3.25 -6.390625 C 3.039062 -6.171875 2.9375 -5.847656 2.9375 -5.421875 C 2.9375 -5.003906 3.039062 -4.679688 3.25 -4.453125 C 3.46875 -4.222656 3.773438 -4.109375 4.171875 -4.109375 Z M 4.140625 1.9375 C 4.828125 1.9375 5.328125 1.835938 5.640625 1.640625 C 5.953125 1.453125 6.109375 1.203125 6.109375 0.890625 C 6.109375 0.640625 6.023438 0.453125 5.859375 0.328125 C 5.703125 0.210938 5.453125 0.148438 5.109375 0.140625 L 3.53125 0.078125 C 3.476562 0.078125 3.425781 0.0703125 3.375 0.0625 C 3.332031 0.0625 3.289062 0.0625 3.25 0.0625 C 2.90625 0.0625 2.644531 0.132812 2.46875 0.28125 C 2.289062 0.425781 2.203125 0.625 2.203125 0.875 C 2.203125 1.21875 2.363281 1.476562 2.6875 1.65625 C 3.019531 1.84375 3.503906 1.9375 4.140625 1.9375 Z M 4.140625 1.9375 "/></g></g></g></svg>