<svg xmlns="http://www.w3.org/2000/svg" xmlns:xlink="http://www.w3.org/1999/xlink" width="500" zoomAndPan="magnify" viewBox="0 0 375 374.999991" height="500" preserveAspectRatio="xMidYMid meet" version="1.0"><defs><g/></defs><path fill="#003366" d="M 32.226562 169.921875 C 32.226562 170.304688 32.1875 170.6875 32.113281 171.066406 C 32.039062 171.441406 31.929688 171.808594 31.78125 172.164062 C 31.632812 172.519531 31.453125 172.855469 31.238281 173.175781 C 31.023438 173.496094 30.78125 173.792969 30.511719 174.066406 C 30.238281 174.335938 29.941406 174.578125 29.621094 174.792969 C 29.300781 175.007812 28.964844 175.1875 28.609375 175.335938 C 28.253906 175.484375 27.886719 175.59375 27.511719 175.667969 C 27.132812 175.742188 26.75 175.78125 26.367188 175.78125 C 25.984375 175.78125 25.601562 175.742188 25.222656 175.667969 C 24.847656 175.59375 24.480469 175.484375 24.125 175.335938 C 23.769531 175.1875 23.433594 175.007812 23.113281 174.792969 C 22.792969 174.578125 22.496094 174.335938 22.222656 174.066406 C 21.953125 173.792969 21.710938 173.496094 21.496094 173.175781 C 21.28125 172.855469 21.101562 172.519531 20.953125 172.164062 C 20.804688 171.808594 20.695312 171.441406 20.621094 171.066406 C 20.546875 170.6875 20.507812 170.304688 20.507812 169.921875 C 20.507812 169.539062 20.546875 169.15625 20.621094 168.777344 C 20.695312 168.402344 20.804688 168.035156 20.953125 167.679688 C 21.101562 167.324219 21.28125 166.988281 21.496094 166.667969 C 21.710938 166.347656 21.953125 166.050781 22.222656 165.777344 C 22.496094 165.507812 22.792969 165.265625 23.113281 165.050781 C 23.433594 164.835938 23.769531 164.65625 24.125 164.507812 C 24.480469 164.359375 24.847656 164.25 25.222656 164.175781 C 25.601562 164.101562 25.984375 164.0625 26.367188 164.0625 C 26.75 164.0625 27.132812 164.101562 27.511719 164.175781 C 27.886719 164.25 28.253906 164.359375 28.609375 164.507812 C 28.964844 164.65625 29.300781 164.835938 29.621094 165.050781 C 29.941406 165.265625 30.238281 165.507812 30.511719 165.777344 C 30.78125 166.050781 31.023438 166.347656 31.238281 166.667969 C 31.453125 166.988281 31.632812 167.324219 31.78125 167.679688 C 31.929688 168.035156 32.039062 168.402344 32.113281 168.777344 C 32.1875 169.15625 32.226562 169.539062 32.226562 169.921875 Z M 32.226562 169.921875 " fill-opacity="1" fill-rule="nonzero"/><path fill="#003366" d="M 32.226562 199.21875 C 32.226562 199.601562 32.1875 199.984375 32.113281 200.363281 C 32.039062 200.738281 31.929688 201.105469 31.78125 201.460938 C 31.632812 201.816406 31.453125 202.152344 31.238281 202.472656 C 31.023438 202.792969 30.78125 203.089844 30.511719 203.363281 C 30.238281 203.632812 29.941406 203.875 29.621094 204.089844 C 29.300781 204.304688 28.964844 204.484375 28.609375 204.632812 C 28.253906 204.777344 27.886719 204.890625 27.511719 204.964844 C 27.132812 205.039062 26.75 205.078125 26.367188 205.078125 C 25.984375 205.078125 25.601562 205.039062 25.222656 204.964844 C 24.847656 204.890625 24.480469 204.777344 24.125 204.632812 C 23.769531 204.484375 23.433594 204.304688 23.113281 204.089844 C 22.792969 203.875 22.496094 203.632812 22.222656 203.363281 C 21.953125 203.089844 21.710938 202.792969 21.496094 202.472656 C 21.28125 202.152344 21.101562 201.816406 20.953125 201.460938 C 20.804688 201.105469 20.695312 200.738281 20.621094 200.363281 C 20.546875 199.984375 20.507812 199.601562 20.507812 199.21875 C 20.507812 198.835938 20.546875 198.453125 20.621094 198.074219 C 20.695312 197.699219 20.804688 197.332031 20.953125 196.976562 C 21.101562 196.621094 21.28125 196.285156 21.496094 195.964844 C 21.710938 195.644531 21.953125 195.347656 22.222656 195.074219 C 22.496094 194.804688 22.792969 194.5625 23.113281 194.347656 C 23.433594 194.132812 23.769531 193.953125 24.125 193.804688 C 24.480469 193.65625 24.847656 193.546875 25.222656 193.472656 C 25.601562 193.398438 25.984375 193.359375 26.367188 193.359375 C 26.75 193.359375 27.132812 193.398438 27.511719 193.472656 C 27.886719 193.546875 28.253906 193.65625 28.609375 193.804688 C 28.964844 193.953125 29.300781 194.132812 29.621094 194.347656 C 29.941406 194.5625 30.238281 194.804688 30.511719 195.074219 C 30.78125 195.347656 31.023438 195.644531 31.238281 195.964844 C 31.453125 196.285156 31.632812 196.621094 31.78125 196.976562 C 31.929688 197.332031 32.039062 197.699219 32.113281 198.074219 C 32.1875 198.453125 32.226562 198.835938 32.226562 199.21875 Z M 32.226562 199.21875 " fill-opacity="1" fill-rule="nonzero"/><path fill="#003366" d="M 11.71875 231.445312 L 96.679688 231.445312 L 96.679688 219.726562 L 11.71875 219.726562 L 11.71875 49.804688 L 146.484375 49.804688 L 146.484375 131.835938 L 158.203125 131.835938 L 158.203125 49.804688 C 158.203125 43.359375 152.929688 38.085938 146.484375 38.085938 L 11.71875 38.085938 C 5.273438 38.085938 0 43.359375 0 49.804688 L 0 219.726562 C 0 226.171875 5.273438 231.445312 11.71875 231.445312 Z M 11.71875 231.445312 " fill-opacity="1" fill-rule="nonzero"/><path fill="#003366" d="M 43.945312 125.976562 L 43.945312 143.554688 C 43.945312 146.777344 46.582031 149.414062 49.804688 149.414062 C 53.027344 149.414062 55.664062 146.777344 55.664062 143.554688 L 55.664062 125.976562 C 55.664062 122.753906 58.300781 120.117188 61.523438 120.117188 L 102.539062 120.117188 C 105.761719 120.117188 108.398438 122.753906 108.398438 125.976562 L 108.398438 135.058594 C 111.914062 133.007812 115.722656 131.835938 120.117188 131.835938 L 120.117188 125.976562 C 120.117188 116.308594 112.207031 108.398438 102.539062 108.398438 L 94.042969 108.398438 C 102.539062 104.003906 108.398438 95.214844 108.398438 84.960938 C 108.398438 70.3125 96.679688 58.59375 82.03125 58.59375 C 67.382812 58.59375 55.664062 70.3125 55.664062 84.960938 C 55.664062 95.214844 61.523438 104.003906 70.019531 108.398438 L 61.523438 108.398438 C 51.855469 108.398438 43.945312 116.308594 43.945312 125.976562 Z M 82.03125 70.3125 C 90.234375 70.3125 96.679688 76.757812 96.679688 84.960938 C 96.679688 93.164062 90.234375 99.609375 82.03125 99.609375 C 73.828125 99.609375 67.382812 93.164062 67.382812 84.960938 C 67.382812 76.757812 73.828125 70.3125 82.03125 70.3125 Z M 82.03125 70.3125 " fill-opacity="1" fill-rule="nonzero"/><path fill="#003366" d="M 49.804688 175.78125 L 96.679688 175.78125 L 96.679688 164.0625 L 49.804688 164.0625 C 46.582031 164.0625 43.945312 166.699219 43.945312 169.921875 C 43.945312 173.144531 46.582031 175.78125 49.804688 175.78125 Z M 49.804688 175.78125 " fill-opacity="1" fill-rule="nonzero"/><path fill="#003366" d="M 49.804688 205.078125 L 96.679688 205.078125 L 96.679688 193.359375 L 49.804688 193.359375 C 46.582031 193.359375 43.945312 195.996094 43.945312 199.21875 C 43.945312 202.441406 46.582031 205.078125 49.804688 205.078125 Z M 49.804688 205.078125 " fill-opacity="1" fill-rule="nonzero"/><path fill="#003366" d="M 375 219.726562 L 375 49.804688 C 375 43.359375 369.726562 38.085938 363.28125 38.085938 L 228.515625 38.085938 C 222.070312 38.085938 216.796875 43.359375 216.796875 49.804688 L 216.796875 131.835938 L 228.515625 131.835938 L 228.515625 49.804688 L 363.28125 49.804688 L 363.28125 219.726562 L 278.320312 219.726562 L 278.320312 231.445312 L 363.28125 231.445312 C 369.726562 231.445312 375 226.171875 375 219.726562 Z M 375 219.726562 " fill-opacity="1" fill-rule="nonzero"/><path fill="#003366" d="M 260.742188 125.976562 L 260.742188 132.714844 C 265.429688 133.886719 269.53125 136.523438 272.460938 140.039062 L 272.460938 125.976562 C 272.460938 122.753906 275.097656 120.117188 278.320312 120.117188 L 319.335938 120.117188 C 322.558594 120.117188 325.195312 122.753906 325.195312 125.976562 L 325.195312 143.554688 C 325.195312 146.777344 327.832031 149.414062 331.054688 149.414062 C 334.277344 149.414062 336.914062 146.777344 336.914062 143.554688 L 336.914062 125.976562 C 336.914062 116.308594 329.003906 108.398438 319.335938 108.398438 L 310.839844 108.398438 C 319.335938 104.003906 325.195312 95.214844 325.195312 84.960938 C 325.195312 70.3125 313.476562 58.59375 298.828125 58.59375 C 284.179688 58.59375 272.460938 70.3125 272.460938 84.960938 C 272.460938 95.214844 278.320312 104.003906 286.816406 108.398438 L 278.320312 108.398438 C 268.652344 108.398438 260.742188 116.308594 260.742188 125.976562 Z M 298.828125 70.3125 C 307.03125 70.3125 313.476562 76.757812 313.476562 84.960938 C 313.476562 93.164062 307.03125 99.609375 298.828125 99.609375 C 290.625 99.609375 284.179688 93.164062 284.179688 84.960938 C 284.179688 76.757812 290.625 70.3125 298.828125 70.3125 Z M 298.828125 70.3125 " fill-opacity="1" fill-rule="nonzero"/><path fill="#003366" d="M 354.492188 164.0625 L 278.320312 164.0625 L 278.320312 175.78125 L 354.492188 175.78125 C 357.714844 175.78125 360.351562 173.144531 360.351562 169.921875 C 360.351562 166.699219 357.714844 164.0625 354.492188 164.0625 Z M 354.492188 164.0625 " fill-opacity="1" fill-rule="nonzero"/><path fill="#003366" d="M 354.492188 193.359375 L 278.320312 193.359375 L 278.320312 205.078125 L 354.492188 205.078125 C 357.714844 205.078125 360.351562 202.441406 360.351562 199.21875 C 360.351562 195.996094 357.714844 193.359375 354.492188 193.359375 Z M 354.492188 193.359375 " fill-opacity="1" fill-rule="nonzero"/><path fill="#003366" d="M 108.398438 155.273438 L 108.398438 325.195312 C 108.398438 331.640625 113.671875 336.914062 120.117188 336.914062 L 254.882812 336.914062 C 261.328125 336.914062 266.601562 331.640625 266.601562 325.195312 L 266.601562 155.273438 C 266.601562 148.828125 261.328125 143.554688 254.882812 143.554688 L 120.117188 143.554688 C 113.671875 143.554688 108.398438 148.828125 108.398438 155.273438 Z M 254.882812 325.195312 L 120.117188 325.195312 L 120.117188 155.273438 L 254.882812 155.273438 Z M 254.882812 325.195312 " fill-opacity="1" fill-rule="nonzero"/><path fill="#003366" d="M 155.273438 257.8125 C 158.496094 257.8125 161.132812 255.175781 161.132812 251.953125 L 161.132812 234.375 C 161.132812 231.152344 163.769531 228.515625 166.992188 228.515625 L 208.007812 228.515625 C 211.230469 228.515625 213.867188 231.152344 213.867188 234.375 L 213.867188 251.953125 C 213.867188 255.175781 216.503906 257.8125 219.726562 257.8125 C 222.949219 257.8125 225.585938 255.175781 225.585938 251.953125 L 225.585938 234.375 C 225.585938 224.707031 217.675781 216.796875 208.007812 216.796875 L 199.511719 216.796875 C 208.007812 212.402344 213.867188 203.613281 213.867188 193.359375 C 213.867188 178.710938 202.148438 166.992188 187.5 166.992188 C 172.851562 166.992188 161.132812 178.710938 161.132812 193.359375 C 161.132812 203.613281 166.992188 212.402344 175.488281 216.796875 L 166.992188 216.796875 C 157.324219 216.796875 149.414062 224.707031 149.414062 234.375 L 149.414062 251.953125 C 149.414062 255.175781 152.050781 257.8125 155.273438 257.8125 Z M 187.5 178.710938 C 195.703125 178.710938 202.148438 185.15625 202.148438 193.359375 C 202.148438 201.5625 195.703125 208.007812 187.5 208.007812 C 179.296875 208.007812 172.851562 201.5625 172.851562 193.359375 C 172.851562 185.15625 179.296875 178.710938 187.5 178.710938 Z M 187.5 178.710938 " fill-opacity="1" fill-rule="nonzero"/><path fill="#003366" d="M 155.273438 284.179688 L 243.164062 284.179688 C 246.386719 284.179688 249.023438 281.542969 249.023438 278.320312 C 249.023438 275.097656 246.386719 272.460938 243.164062 272.460938 L 155.273438 272.460938 C 152.050781 272.460938 149.414062 275.097656 149.414062 278.320312 C 149.414062 281.542969 152.050781 284.179688 155.273438 284.179688 Z M 155.273438 284.179688 " fill-opacity="1" fill-rule="nonzero"/><path fill="#003366" d="M 155.273438 313.476562 L 243.164062 313.476562 C 246.386719 313.476562 249.023438 310.839844 249.023438 307.617188 C 249.023438 304.394531 246.386719 301.757812 243.164062 301.757812 L 155.273438 301.757812 C 152.050781 301.757812 149.414062 304.394531 149.414062 307.617188 C 149.414062 310.839844 152.050781 313.476562 155.273438 313.476562 Z M 155.273438 313.476562 " fill-opacity="1" fill-rule="nonzero"/><path fill="#003366" d="M 137.695312 278.320312 C 137.695312 278.703125 137.65625 279.085938 137.582031 279.464844 C 137.507812 279.839844 137.398438 280.207031 137.25 280.5625 C 137.101562 280.917969 136.921875 281.253906 136.707031 281.574219 C 136.492188 281.894531 136.25 282.191406 135.980469 282.464844 C 135.707031 282.734375 135.410156 282.976562 135.089844 283.191406 C 134.769531 283.40625 134.433594 283.585938 134.078125 283.734375 C 133.722656 283.878906 133.355469 283.992188 132.980469 284.066406 C 132.601562 284.140625 132.21875 284.179688 131.835938 284.179688 C 131.453125 284.179688 131.070312 284.140625 130.691406 284.066406 C 130.316406 283.992188 129.949219 283.878906 129.59375 283.734375 C 129.238281 283.585938 128.902344 283.40625 128.582031 283.191406 C 128.261719 282.976562 127.964844 282.734375 127.691406 282.464844 C 127.421875 282.191406 127.179688 281.894531 126.964844 281.574219 C 126.75 281.253906 126.570312 280.917969 126.421875 280.5625 C 126.273438 280.207031 126.164062 279.839844 126.089844 279.464844 C 126.015625 279.085938 125.976562 278.703125 125.976562 278.320312 C 125.976562 277.9375 126.015625 277.554688 126.089844 277.175781 C 126.164062 276.800781 126.273438 276.433594 126.421875 276.078125 C 126.570312 275.722656 126.75 275.386719 126.964844 275.066406 C 127.179688 274.746094 127.421875 274.449219 127.691406 274.175781 C 127.964844 273.90625 128.261719 273.664062 128.582031 273.449219 C 128.902344 273.234375 129.238281 273.054688 129.59375 272.90625 C 129.949219 272.757812 130.316406 272.648438 130.691406 272.574219 C 131.070312 272.5 131.453125 272.460938 131.835938 272.460938 C 132.21875 272.460938 132.601562 272.5 132.980469 272.574219 C 133.355469 272.648438 133.722656 272.757812 134.078125 272.90625 C 134.433594 273.054688 134.769531 273.234375 135.089844 273.449219 C 135.410156 273.664062 135.707031 273.90625 135.980469 274.175781 C 136.25 274.449219 136.492188 274.746094 136.707031 275.066406 C 136.921875 275.386719 137.101562 275.722656 137.25 276.078125 C 137.398438 276.433594 137.507812 276.800781 137.582031 277.175781 C 137.65625 277.554688 137.695312 277.9375 137.695312 278.320312 Z M 137.695312 278.320312 " fill-opacity="1" fill-rule="nonzero"/><path fill="#003366" d="M 137.695312 307.617188 C 137.695312 308 137.65625 308.382812 137.582031 308.761719 C 137.507812 309.136719 137.398438 309.503906 137.25 309.859375 C 137.101562 310.214844 136.921875 310.550781 136.707031 310.871094 C 136.492188 311.191406 136.25 311.488281 135.980469 311.761719 C 135.707031 312.03125 135.410156 312.273438 135.089844 312.488281 C 134.769531 312.703125 134.433594 312.882812 134.078125 313.03125 C 133.722656 313.175781 133.355469 313.289062 132.980469 313.363281 C 132.601562 313.4375 132.21875 313.476562 131.835938 313.476562 C 131.453125 313.476562 131.070312 313.4375 130.691406 313.363281 C 130.316406 313.289062 129.949219 313.175781 129.59375 313.03125 C 129.238281 312.882812 128.902344 312.703125 128.582031 312.488281 C 128.261719 312.273438 127.964844 312.03125 127.691406 311.761719 C 127.421875 311.488281 127.179688 311.191406 126.964844 310.871094 C 126.75 310.550781 126.570312 310.214844 126.421875 309.859375 C 126.273438 309.503906 126.164062 309.136719 126.089844 308.761719 C 126.015625 308.382812 125.976562 308 125.976562 307.617188 C 125.976562 307.234375 126.015625 306.851562 126.089844 306.472656 C 126.164062 306.097656 126.273438 305.730469 126.421875 305.375 C 126.570312 305.019531 126.75 304.683594 126.964844 304.363281 C 127.179688 304.042969 127.421875 303.746094 127.691406 303.472656 C 127.964844 303.203125 128.261719 302.960938 128.582031 302.746094 C 128.902344 302.53125 129.238281 302.351562 129.59375 302.203125 C 129.949219 302.054688 130.316406 301.945312 130.691406 301.871094 C 131.070312 301.796875 131.453125 301.757812 131.835938 301.757812 C 132.21875 301.757812 132.601562 301.796875 132.980469 301.871094 C 133.355469 301.945312 133.722656 302.054688 134.078125 302.203125 C 134.433594 302.351562 134.769531 302.53125 135.089844 302.746094 C 135.410156 302.960938 135.707031 303.203125 135.980469 303.472656 C 136.25 303.746094 136.492188 304.042969 136.707031 304.363281 C 136.921875 304.683594 137.101562 305.019531 137.25 305.375 C 137.398438 305.730469 137.507812 306.097656 137.582031 306.472656 C 137.65625 306.851562 137.695312 307.234375 137.695312 307.617188 Z M 137.695312 307.617188 " fill-opacity="1" fill-rule="nonzero"/><g fill="#ffffff" fill-opacity="1"><g transform="translate(20.455614, 29.979555)"><g><path d="M 10.171875 0 L 7.96875 0 L 7.171875 -2.4375 L 3.109375 -2.4375 L 2.3125 0 L 0.15625 0 L 3.8125 -10.59375 L 6.515625 -10.59375 Z M 5.03125 -8.390625 L 3.671875 -4.203125 L 6.59375 -4.203125 L 5.21875 -8.390625 Z M 5.03125 -8.390625 "/></g></g></g><g fill="#ffffff" fill-opacity="1"><g transform="translate(30.783892, 29.979555)"><g><path d="M 3.953125 0.15625 C 3.316406 0.15625 2.753906 0.00390625 2.265625 -0.296875 C 1.785156 -0.609375 1.40625 -1.070312 1.125 -1.6875 C 0.851562 -2.3125 0.71875 -3.082031 0.71875 -4 C 0.71875 -4.90625 0.859375 -5.664062 1.140625 -6.28125 C 1.421875 -6.90625 1.8125 -7.367188 2.3125 -7.671875 C 2.8125 -7.984375 3.390625 -8.140625 4.046875 -8.140625 C 4.546875 -8.140625 4.976562 -8.050781 5.34375 -7.875 C 5.707031 -7.707031 6.015625 -7.445312 6.265625 -7.09375 L 6.421875 -7.125 L 6.421875 -11.203125 L 8.421875 -11.203125 L 8.421875 0 L 6.421875 0 L 6.421875 -1.03125 L 6.265625 -1.0625 C 6.046875 -0.6875 5.742188 -0.390625 5.359375 -0.171875 C 4.972656 0.046875 4.503906 0.15625 3.953125 0.15625 Z M 4.609375 -1.546875 C 5.171875 -1.546875 5.613281 -1.75 5.9375 -2.15625 C 6.269531 -2.5625 6.4375 -3.175781 6.4375 -4 C 6.4375 -4.8125 6.269531 -5.421875 5.9375 -5.828125 C 5.613281 -6.234375 5.171875 -6.4375 4.609375 -6.4375 C 4.015625 -6.4375 3.5625 -6.238281 3.25 -5.84375 C 2.9375 -5.457031 2.78125 -4.84375 2.78125 -4 C 2.78125 -3.15625 2.9375 -2.535156 3.25 -2.140625 C 3.5625 -1.742188 4.015625 -1.546875 4.609375 -1.546875 Z M 4.609375 -1.546875 "/></g></g></g><g fill="#ffffff" fill-opacity="1"><g transform="translate(40.365633, 29.979555)"><g><path d="M 3.953125 0.15625 C 3.316406 0.15625 2.753906 0.00390625 2.265625 -0.296875 C 1.785156 -0.609375 1.40625 -1.070312 1.125 -1.6875 C 0.851562 -2.3125 0.71875 -3.082031 0.71875 -4 C 0.71875 -4.90625 0.859375 -5.664062 1.140625 -6.28125 C 1.421875 -6.90625 1.8125 -7.367188 2.3125 -7.671875 C 2.8125 -7.984375 3.390625 -8.140625 4.046875 -8.140625 C 4.546875 -8.140625 4.976562 -8.050781 5.34375 -7.875 C 5.707031 -7.707031 6.015625 -7.445312 6.265625 -7.09375 L 6.421875 -7.125 L 6.421875 -11.203125 L 8.421875 -11.203125 L 8.421875 0 L 6.421875 0 L 6.421875 -1.03125 L 6.265625 -1.0625 C 6.046875 -0.6875 5.742188 -0.390625 5.359375 -0.171875 C 4.972656 0.046875 4.503906 0.15625 3.953125 0.15625 Z M 4.609375 -1.546875 C 5.171875 -1.546875 5.613281 -1.75 5.9375 -2.15625 C 6.269531 -2.5625 6.4375 -3.175781 6.4375 -4 C 6.4375 -4.8125 6.269531 -5.421875 5.9375 -5.828125 C 5.613281 -6.234375 5.171875 -6.4375 4.609375 -6.4375 C 4.015625 -6.4375 3.5625 -6.238281 3.25 -5.84375 C 2.9375 -5.457031 2.78125 -4.84375 2.78125 -4 C 2.78125 -3.15625 2.9375 -2.535156 3.25 -2.140625 C 3.5625 -1.742188 4.015625 -1.546875 4.609375 -1.546875 Z M 4.609375 -1.546875 "/></g></g></g><g fill="#ffffff" fill-opacity="1"><g transform="translate(49.947374, 29.979555)"><g/></g></g><g fill="#ffffff" fill-opacity="1"><g transform="translate(53.448119, 29.979555)"><g><path d="M 3.109375 0.15625 C 2.597656 0.15625 2.15625 0.0625 1.78125 -0.125 C 1.40625 -0.3125 1.113281 -0.585938 0.90625 -0.953125 C 0.707031 -1.316406 0.609375 -1.757812 0.609375 -2.28125 C 0.609375 -2.75 0.707031 -3.144531 0.90625 -3.46875 C 1.113281 -3.789062 1.429688 -4.050781 1.859375 -4.25 C 2.285156 -4.457031 2.835938 -4.617188 3.515625 -4.734375 C 3.992188 -4.804688 4.359375 -4.890625 4.609375 -4.984375 C 4.859375 -5.078125 5.023438 -5.179688 5.109375 -5.296875 C 5.203125 -5.410156 5.25 -5.554688 5.25 -5.734375 C 5.25 -5.992188 5.160156 -6.191406 4.984375 -6.328125 C 4.804688 -6.460938 4.507812 -6.53125 4.09375 -6.53125 C 3.644531 -6.53125 3.21875 -6.429688 2.8125 -6.234375 C 2.414062 -6.035156 2.070312 -5.773438 1.78125 -5.453125 L 1.625 -5.453125 L 0.796875 -6.71875 C 1.203125 -7.164062 1.695312 -7.515625 2.28125 -7.765625 C 2.863281 -8.015625 3.5 -8.140625 4.1875 -8.140625 C 5.25 -8.140625 6.015625 -7.914062 6.484375 -7.46875 C 6.960938 -7.019531 7.203125 -6.382812 7.203125 -5.5625 L 7.203125 -2.09375 C 7.203125 -1.726562 7.359375 -1.546875 7.671875 -1.546875 C 7.785156 -1.546875 7.90625 -1.566406 8.03125 -1.609375 L 8.125 -1.59375 L 8.265625 -0.1875 C 8.160156 -0.113281 8.007812 -0.0507812 7.8125 0 C 7.613281 0.0390625 7.394531 0.0625 7.15625 0.0625 C 6.675781 0.0625 6.300781 -0.03125 6.03125 -0.21875 C 5.757812 -0.40625 5.566406 -0.691406 5.453125 -1.078125 L 5.3125 -1.09375 C 4.914062 -0.257812 4.179688 0.15625 3.109375 0.15625 Z M 3.75 -1.34375 C 4.21875 -1.34375 4.585938 -1.5 4.859375 -1.8125 C 5.140625 -2.125 5.28125 -2.554688 5.28125 -3.109375 L 5.28125 -3.921875 L 5.140625 -3.953125 C 5.023438 -3.859375 4.867188 -3.773438 4.671875 -3.703125 C 4.472656 -3.640625 4.191406 -3.578125 3.828125 -3.515625 C 3.390625 -3.441406 3.078125 -3.316406 2.890625 -3.140625 C 2.703125 -2.972656 2.609375 -2.726562 2.609375 -2.40625 C 2.609375 -2.0625 2.707031 -1.796875 2.90625 -1.609375 C 3.101562 -1.429688 3.382812 -1.34375 3.75 -1.34375 Z M 3.75 -1.34375 "/></g></g></g><g fill="#ffffff" fill-opacity="1"><g transform="translate(61.877444, 29.979555)"><g/></g></g><g fill="#ffffff" fill-opacity="1"><g transform="translate(65.378188, 29.979555)"><g><path d="M 1.15625 0 L 1.15625 -11.203125 L 3.15625 -11.203125 L 3.15625 -6.953125 L 3.3125 -6.921875 C 3.582031 -7.316406 3.910156 -7.617188 4.296875 -7.828125 C 4.679688 -8.035156 5.144531 -8.140625 5.6875 -8.140625 C 7.445312 -8.140625 8.328125 -7.140625 8.328125 -5.140625 L 8.328125 0 L 6.328125 0 L 6.328125 -4.890625 C 6.328125 -5.441406 6.21875 -5.835938 6 -6.078125 C 5.78125 -6.328125 5.441406 -6.453125 4.984375 -6.453125 C 4.421875 -6.453125 3.972656 -6.265625 3.640625 -5.890625 C 3.316406 -5.515625 3.15625 -4.929688 3.15625 -4.140625 L 3.15625 0 Z M 1.15625 0 "/></g></g></g><g fill="#ffffff" fill-opacity="1"><g transform="translate(74.742492, 29.979555)"><g><path d="M 7.90625 -3.546875 L 2.765625 -3.546875 C 2.816406 -2.847656 3.007812 -2.335938 3.34375 -2.015625 C 3.6875 -1.703125 4.148438 -1.546875 4.734375 -1.546875 C 5.191406 -1.546875 5.5625 -1.628906 5.84375 -1.796875 C 6.132812 -1.972656 6.367188 -2.238281 6.546875 -2.59375 L 6.703125 -2.59375 L 8.03125 -1.734375 C 7.769531 -1.171875 7.375 -0.710938 6.84375 -0.359375 C 6.320312 -0.015625 5.617188 0.15625 4.734375 0.15625 C 3.910156 0.15625 3.195312 0 2.59375 -0.3125 C 2 -0.632812 1.535156 -1.101562 1.203125 -1.71875 C 0.878906 -2.34375 0.71875 -3.101562 0.71875 -4 C 0.71875 -4.90625 0.890625 -5.664062 1.234375 -6.28125 C 1.578125 -6.90625 2.039062 -7.367188 2.625 -7.671875 C 3.207031 -7.984375 3.863281 -8.140625 4.59375 -8.140625 C 5.726562 -8.140625 6.59375 -7.835938 7.1875 -7.234375 C 7.789062 -6.640625 8.09375 -5.765625 8.09375 -4.609375 C 8.09375 -4.191406 8.078125 -3.863281 8.046875 -3.625 Z M 6.171875 -4.84375 C 6.148438 -5.445312 6.007812 -5.890625 5.75 -6.171875 C 5.488281 -6.453125 5.101562 -6.59375 4.59375 -6.59375 C 3.582031 -6.59375 2.988281 -6.007812 2.8125 -4.84375 Z M 6.171875 -4.84375 "/></g></g></g><g fill="#ffffff" fill-opacity="1"><g transform="translate(83.432741, 29.979555)"><g><path d="M 3.109375 0.15625 C 2.597656 0.15625 2.15625 0.0625 1.78125 -0.125 C 1.40625 -0.3125 1.113281 -0.585938 0.90625 -0.953125 C 0.707031 -1.316406 0.609375 -1.757812 0.609375 -2.28125 C 0.609375 -2.75 0.707031 -3.144531 0.90625 -3.46875 C 1.113281 -3.789062 1.429688 -4.050781 1.859375 -4.25 C 2.285156 -4.457031 2.835938 -4.617188 3.515625 -4.734375 C 3.992188 -4.804688 4.359375 -4.890625 4.609375 -4.984375 C 4.859375 -5.078125 5.023438 -5.179688 5.109375 -5.296875 C 5.203125 -5.410156 5.25 -5.554688 5.25 -5.734375 C 5.25 -5.992188 5.160156 -6.191406 4.984375 -6.328125 C 4.804688 -6.460938 4.507812 -6.53125 4.09375 -6.53125 C 3.644531 -6.53125 3.21875 -6.429688 2.8125 -6.234375 C 2.414062 -6.035156 2.070312 -5.773438 1.78125 -5.453125 L 1.625 -5.453125 L 0.796875 -6.71875 C 1.203125 -7.164062 1.695312 -7.515625 2.28125 -7.765625 C 2.863281 -8.015625 3.5 -8.140625 4.1875 -8.140625 C 5.25 -8.140625 6.015625 -7.914062 6.484375 -7.46875 C 6.960938 -7.019531 7.203125 -6.382812 7.203125 -5.5625 L 7.203125 -2.09375 C 7.203125 -1.726562 7.359375 -1.546875 7.671875 -1.546875 C 7.785156 -1.546875 7.90625 -1.566406 8.03125 -1.609375 L 8.125 -1.59375 L 8.265625 -0.1875 C 8.160156 -0.113281 8.007812 -0.0507812 7.8125 0 C 7.613281 0.0390625 7.394531 0.0625 7.15625 0.0625 C 6.675781 0.0625 6.300781 -0.03125 6.03125 -0.21875 C 5.757812 -0.40625 5.566406 -0.691406 5.453125 -1.078125 L 5.3125 -1.09375 C 4.914062 -0.257812 4.179688 0.15625 3.109375 0.15625 Z M 3.75 -1.34375 C 4.21875 -1.34375 4.585938 -1.5 4.859375 -1.8125 C 5.140625 -2.125 5.28125 -2.554688 5.28125 -3.109375 L 5.28125 -3.921875 L 5.140625 -3.953125 C 5.023438 -3.859375 4.867188 -3.773438 4.671875 -3.703125 C 4.472656 -3.640625 4.191406 -3.578125 3.828125 -3.515625 C 3.390625 -3.441406 3.078125 -3.316406 2.890625 -3.140625 C 2.703125 -2.972656 2.609375 -2.726562 2.609375 -2.40625 C 2.609375 -2.0625 2.707031 -1.796875 2.90625 -1.609375 C 3.101562 -1.429688 3.382812 -1.34375 3.75 -1.34375 Z M 3.75 -1.34375 "/></g></g></g><g fill="#ffffff" fill-opacity="1"><g transform="translate(91.862062, 29.979555)"><g><path d="M 3.953125 0.15625 C 3.316406 0.15625 2.753906 0.00390625 2.265625 -0.296875 C 1.785156 -0.609375 1.40625 -1.070312 1.125 -1.6875 C 0.851562 -2.3125 0.71875 -3.082031 0.71875 -4 C 0.71875 -4.90625 0.859375 -5.664062 1.140625 -6.28125 C 1.421875 -6.90625 1.8125 -7.367188 2.3125 -7.671875 C 2.8125 -7.984375 3.390625 -8.140625 4.046875 -8.140625 C 4.546875 -8.140625 4.976562 -8.050781 5.34375 -7.875 C 5.707031 -7.707031 6.015625 -7.445312 6.265625 -7.09375 L 6.421875 -7.125 L 6.421875 -11.203125 L 8.421875 -11.203125 L 8.421875 0 L 6.421875 0 L 6.421875 -1.03125 L 6.265625 -1.0625 C 6.046875 -0.6875 5.742188 -0.390625 5.359375 -0.171875 C 4.972656 0.046875 4.503906 0.15625 3.953125 0.15625 Z M 4.609375 -1.546875 C 5.171875 -1.546875 5.613281 -1.75 5.9375 -2.15625 C 6.269531 -2.5625 6.4375 -3.175781 6.4375 -4 C 6.4375 -4.8125 6.269531 -5.421875 5.9375 -5.828125 C 5.613281 -6.234375 5.171875 -6.4375 4.609375 -6.4375 C 4.015625 -6.4375 3.5625 -6.238281 3.25 -5.84375 C 2.9375 -5.457031 2.78125 -4.84375 2.78125 -4 C 2.78125 -3.15625 2.9375 -2.535156 3.25 -2.140625 C 3.5625 -1.742188 4.015625 -1.546875 4.609375 -1.546875 Z M 4.609375 -1.546875 "/></g></g></g><g fill="#ffffff" fill-opacity="1"><g transform="translate(101.443799, 29.979555)"><g><path d="M 2.15625 -8.953125 C 1.789062 -8.953125 1.492188 -9.0625 1.265625 -9.28125 C 1.035156 -9.5 0.921875 -9.78125 0.921875 -10.125 C 0.921875 -10.46875 1.035156 -10.75 1.265625 -10.96875 C 1.492188 -11.195312 1.789062 -11.3125 2.15625 -11.3125 C 2.394531 -11.3125 2.609375 -11.257812 2.796875 -11.15625 C 2.984375 -11.050781 3.128906 -10.910156 3.234375 -10.734375 C 3.335938 -10.554688 3.390625 -10.351562 3.390625 -10.125 C 3.390625 -9.90625 3.335938 -9.703125 3.234375 -9.515625 C 3.128906 -9.335938 2.984375 -9.195312 2.796875 -9.09375 C 2.609375 -9 2.394531 -8.953125 2.15625 -8.953125 Z M 1.15625 0 L 1.15625 -8 L 3.15625 -8 L 3.15625 0 Z M 1.15625 0 "/></g></g></g><g fill="#ffffff" fill-opacity="1"><g transform="translate(105.749055, 29.979555)"><g><path d="M 1.15625 0 L 1.15625 -8 L 3.078125 -8 L 3.078125 -6.8125 L 3.234375 -6.78125 C 3.734375 -7.6875 4.539062 -8.140625 5.65625 -8.140625 C 6.570312 -8.140625 7.242188 -7.890625 7.671875 -7.390625 C 8.109375 -6.890625 8.328125 -6.160156 8.328125 -5.203125 L 8.328125 0 L 6.328125 0 L 6.328125 -4.953125 C 6.328125 -5.484375 6.21875 -5.863281 6 -6.09375 C 5.789062 -6.332031 5.453125 -6.453125 4.984375 -6.453125 C 4.410156 -6.453125 3.960938 -6.265625 3.640625 -5.890625 C 3.316406 -5.515625 3.15625 -4.929688 3.15625 -4.140625 L 3.15625 0 Z M 1.15625 0 "/></g></g></g><g fill="#ffffff" fill-opacity="1"><g transform="translate(115.113359, 29.979555)"><g><path d="M 4.140625 3.390625 C 2.828125 3.390625 1.851562 3.195312 1.21875 2.8125 C 0.59375 2.425781 0.28125 1.890625 0.28125 1.203125 C 0.28125 0.773438 0.414062 0.425781 0.6875 0.15625 C 0.957031 -0.101562 1.34375 -0.28125 1.84375 -0.375 L 1.84375 -0.53125 C 1.570312 -0.695312 1.375 -0.878906 1.25 -1.078125 C 1.132812 -1.273438 1.078125 -1.507812 1.078125 -1.78125 C 1.078125 -2.414062 1.492188 -2.847656 2.328125 -3.078125 L 2.328125 -3.21875 C 1.898438 -3.46875 1.578125 -3.773438 1.359375 -4.140625 C 1.140625 -4.503906 1.03125 -4.945312 1.03125 -5.46875 C 1.03125 -6 1.148438 -6.460938 1.390625 -6.859375 C 1.640625 -7.265625 2 -7.578125 2.46875 -7.796875 C 2.945312 -8.023438 3.515625 -8.140625 4.171875 -8.140625 C 4.835938 -8.140625 5.367188 -8.023438 5.765625 -7.796875 C 6.003906 -8.148438 6.144531 -8.5625 6.1875 -9.03125 L 6.34375 -9.125 L 7.78125 -8.78125 C 7.738281 -8.394531 7.628906 -8.070312 7.453125 -7.8125 C 7.273438 -7.550781 7 -7.320312 6.625 -7.125 L 6.625 -6.96875 C 7.070312 -6.570312 7.296875 -6.019531 7.296875 -5.3125 C 7.296875 -4.8125 7.171875 -4.363281 6.921875 -3.96875 C 6.671875 -3.582031 6.3125 -3.273438 5.84375 -3.046875 C 5.375 -2.816406 4.816406 -2.703125 4.171875 -2.703125 L 3.859375 -2.71875 C 3.671875 -2.726562 3.535156 -2.734375 3.453125 -2.734375 C 3.273438 -2.734375 3.132812 -2.679688 3.03125 -2.578125 C 2.925781 -2.484375 2.875 -2.359375 2.875 -2.203125 C 2.875 -2.035156 2.941406 -1.90625 3.078125 -1.8125 C 3.210938 -1.71875 3.410156 -1.664062 3.671875 -1.65625 L 5.453125 -1.59375 C 7.222656 -1.53125 8.109375 -0.765625 8.109375 0.703125 C 8.109375 1.210938 7.976562 1.671875 7.71875 2.078125 C 7.457031 2.484375 7.03125 2.800781 6.4375 3.03125 C 5.84375 3.269531 5.078125 3.390625 4.140625 3.390625 Z M 4.171875 -4.109375 C 4.554688 -4.109375 4.859375 -4.222656 5.078125 -4.453125 C 5.296875 -4.679688 5.40625 -5.003906 5.40625 -5.421875 C 5.40625 -5.847656 5.296875 -6.171875 5.078125 -6.390625 C 4.859375 -6.617188 4.554688 -6.734375 4.171875 -6.734375 C 3.773438 -6.734375 3.46875 -6.617188 3.25 -6.390625 C 3.039062 -6.171875 2.9375 -5.847656 2.9375 -5.421875 C 2.9375 -5.003906 3.039062 -4.679688 3.25 -4.453125 C 3.46875 -4.222656 3.773438 -4.109375 4.171875 -4.109375 Z M 4.140625 1.9375 C 4.828125 1.9375 5.328125 1.835938 5.640625 1.640625 C 5.953125 1.453125 6.109375 1.203125 6.109375 0.890625 C 6.109375 0.640625 6.023438 0.453125 5.859375 0.328125 C 5.703125 0.210938 5.453125 0.148438 5.109375 0.140625 L 3.53125 0.078125 C 3.476562 0.078125 3.425781 0.0703125 3.375 0.0625 C 3.332031 0.0625 3.289062 0.0625 3.25 0.0625 C 2.90625 0.0625 2.644531 0.132812 2.46875 0.28125 C 2.289062 0.425781 2.203125 0.625 2.203125 0.875 C 2.203125 1.21875 2.363281 1.476562 2.6875 1.65625 C 3.019531 1.84375 3.503906 1.9375 4.140625 1.9375 Z M 4.140625 1.9375 "/></g></g></g></svg>