<svg xmlns="http://www.w3.org/2000/svg" version="1.1" xmlns:xlink="http://www.w3.org/1999/xlink" width="512" height="512" x="0" y="0" viewBox="0 0 32 32" style="enable-background:new 0 0 512 512" xml:space="preserve" class=""><g><path d="M27 5H5a1 1 0 0 0-1 .93v12.14A1 1 0 0 0 5 19h22a1 1 0 0 0 1-.93V5.93A1 1 0 0 0 27 5zM30.92 25.92l-3-5.44A1 1 0 0 0 27 20H5a1 1 0 0 0-.92.47l-3 5.44a.63.63 0 0 0 .08.73A1.1 1.1 0 0 0 2 27h28a1.1 1.1 0 0 0 .83-.35.63.63 0 0 0 .09-.73zM18 25h-4a1 1 0 0 1 0-2h4a1 1 0 0 1 0 2z" fill="#004080" opacity="1" data-original="#000000" class=""></path></g></svg>